<svg xmlns="http://www.w3.org/2000/svg" xmlns:xlink="http://www.w3.org/1999/xlink" viewBox="0 0 1920 1080"><defs><style>.cls-1{fill:url(#radial-gradient);}.cls-2{fill:#008fdb;}.cls-3{fill:url(#radial-gradient-2);}.cls-4{fill:url(#radial-gradient-3);}.cls-5,.cls-6,.cls-7,.cls-8{fill:#fff9dc;}.cls-5{opacity:0.35;}.cls-6{opacity:0.37;}.cls-7{opacity:0.7;}.cls-9{fill:url(#linear-gradient);}.cls-10{fill:url(#linear-gradient-2);}.cls-11{fill:url(#linear-gradient-3);}.cls-12{fill:url(#linear-gradient-4);}.cls-13{fill:url(#linear-gradient-5);}.cls-14{fill:url(#linear-gradient-6);}.cls-15{fill:url(#linear-gradient-7);}.cls-16{fill:url(#linear-gradient-8);}.cls-17{fill:url(#linear-gradient-9);}.cls-18{fill:url(#linear-gradient-10);}.cls-19{fill:url(#linear-gradient-11);}.cls-20{fill:url(#linear-gradient-12);}.cls-21{fill:url(#linear-gradient-13);}.cls-22{fill:url(#linear-gradient-14);}.cls-23{fill:url(#linear-gradient-15);}.cls-24{fill:url(#linear-gradient-16);}.cls-25{fill:url(#linear-gradient-17);}.cls-26{fill:url(#linear-gradient-18);}.cls-27{fill:url(#linear-gradient-19);}.cls-28{fill:url(#linear-gradient-20);}.cls-29{fill:url(#linear-gradient-21);}.cls-30{fill:url(#linear-gradient-22);}.cls-31{fill:url(#linear-gradient-23);}.cls-32{fill:url(#linear-gradient-24);}.cls-33{fill:url(#linear-gradient-25);}.cls-34{fill:url(#linear-gradient-26);}.cls-35{fill:url(#linear-gradient-27);}.cls-36{fill:url(#linear-gradient-28);}.cls-37{fill:url(#linear-gradient-29);}.cls-38{fill:url(#linear-gradient-30);}.cls-39{fill:url(#linear-gradient-31);}.cls-40{fill:url(#radial-gradient-4);}</style><radialGradient id="radial-gradient" cx="176.88" cy="941.3" r="1467.39" gradientTransform="matrix(-1, 0, 0, 0.83, 1920, 156.97)" gradientUnits="userSpaceOnUse"><stop offset="0.29" stop-color="#ffdb3b"/><stop offset="0.4" stop-color="#ffdc3e"/><stop offset="0.5" stop-color="#ffde49"/><stop offset="0.6" stop-color="#ffe15b"/><stop offset="0.69" stop-color="#ffe574"/><stop offset="0.77" stop-color="#ffeb94"/><stop offset="0.86" stop-color="#fff3bc"/><stop offset="0.94" stop-color="#fffbea"/><stop offset="0.98" stop-color="#fff"/></radialGradient><radialGradient id="radial-gradient-2" cx="2300.95" cy="1457.91" r="1081.56" gradientUnits="userSpaceOnUse"><stop offset="0.88" stop-color="#a1dd64"/><stop offset="0.91" stop-color="#a1dd64" stop-opacity="0.97"/><stop offset="0.94" stop-color="#a1dd64" stop-opacity="0.9"/><stop offset="0.98" stop-color="#a1dd64" stop-opacity="0.79"/><stop offset="1" stop-color="#a1dd64" stop-opacity="0.7"/></radialGradient><radialGradient id="radial-gradient-3" cx="2306.95" cy="1463.91" r="1079.91" gradientUnits="userSpaceOnUse"><stop offset="0.67" stop-color="#fff" stop-opacity="0.27"/><stop offset="0.72" stop-color="#fff" stop-opacity="0.2"/><stop offset="0.83" stop-color="#fff" stop-opacity="0.09"/><stop offset="0.92" stop-color="#fff" stop-opacity="0.02"/><stop offset="0.99" stop-color="#fff" stop-opacity="0"/></radialGradient><linearGradient id="linear-gradient" x1="1695.42" y1="849.85" x2="1433.76" y2="643.52" gradientUnits="userSpaceOnUse"><stop offset="0.22" stop-opacity="0"/><stop offset="1" stop-opacity="0.14"/></linearGradient><linearGradient id="linear-gradient-2" x1="1695.73" y1="849.45" x2="1434.07" y2="643.12" xlink:href="#linear-gradient"/><linearGradient id="linear-gradient-3" x1="1675.94" y1="874.55" x2="1414.28" y2="668.22" xlink:href="#linear-gradient"/><linearGradient id="linear-gradient-4" x1="1682.84" y1="865.81" x2="1421.17" y2="659.48" xlink:href="#linear-gradient"/><linearGradient id="linear-gradient-5" x1="1676.79" y1="873.48" x2="1415.12" y2="667.14" xlink:href="#linear-gradient"/><linearGradient id="linear-gradient-6" x1="1672.86" y1="860.05" x2="1422.86" y2="656.72" gradientUnits="userSpaceOnUse"><stop offset="0.15" stop-color="#f37b35" stop-opacity="0"/><stop offset="0.23" stop-color="#f37b35" stop-opacity="0.08"/><stop offset="0.39" stop-color="#f37b35" stop-opacity="0.29"/><stop offset="0.62" stop-color="#f37b35" stop-opacity="0.63"/><stop offset="0.85" stop-color="#f37b35"/></linearGradient><linearGradient id="linear-gradient-7" x1="1716.35" y1="836.61" x2="1454.68" y2="630.27" gradientTransform="translate(102.77 -147.86) rotate(3.11)" xlink:href="#linear-gradient"/><linearGradient id="linear-gradient-8" x1="1716.66" y1="836.21" x2="1454.99" y2="629.88" gradientTransform="translate(102.77 -147.86) rotate(3.11)" xlink:href="#linear-gradient"/><linearGradient id="linear-gradient-9" x1="1696.87" y1="861.31" x2="1435.21" y2="654.97" gradientTransform="translate(102.77 -147.86) rotate(3.11)" xlink:href="#linear-gradient"/><linearGradient id="linear-gradient-10" x1="1703.76" y1="852.57" x2="1442.1" y2="646.23" gradientTransform="translate(102.77 -147.86) rotate(3.11)" xlink:href="#linear-gradient"/><linearGradient id="linear-gradient-11" x1="1697.72" y1="860.23" x2="1436.05" y2="653.9" gradientTransform="translate(102.77 -147.86) rotate(3.11)" xlink:href="#linear-gradient"/><linearGradient id="linear-gradient-12" x1="1693.79" y1="846.81" x2="1443.79" y2="643.47" gradientTransform="translate(102.77 -147.86) rotate(3.11)" xlink:href="#linear-gradient-6"/><linearGradient id="linear-gradient-13" x1="1578.44" y1="1018.19" x2="1316.77" y2="811.86" gradientTransform="matrix(0.99, -0.16, 0.16, 0.99, -78.03, 160.26)" xlink:href="#linear-gradient"/><linearGradient id="linear-gradient-14" x1="1578.48" y1="1018.58" x2="1316.58" y2="812.06" gradientTransform="matrix(0.99, -0.16, 0.16, 0.99, -78.03, 160.26)" xlink:href="#linear-gradient"/><linearGradient id="linear-gradient-15" x1="1557.93" y1="1043.08" x2="1297.12" y2="837.41" gradientTransform="matrix(0.99, -0.16, 0.16, 0.99, -78.03, 160.26)" xlink:href="#linear-gradient"/><linearGradient id="linear-gradient-16" x1="1565.85" y1="1034.15" x2="1304.18" y2="827.82" gradientTransform="matrix(0.99, -0.16, 0.16, 0.99, -78.03, 160.26)" xlink:href="#linear-gradient"/><linearGradient id="linear-gradient-17" x1="1559.8" y1="1041.82" x2="1298.14" y2="835.49" gradientTransform="matrix(0.99, -0.16, 0.16, 0.99, -78.03, 160.26)" xlink:href="#linear-gradient"/><linearGradient id="linear-gradient-18" x1="1555.87" y1="1028.39" x2="1305.87" y2="825.06" gradientTransform="matrix(0.99, -0.16, 0.16, 0.99, -78.03, 160.26)" xlink:href="#linear-gradient-6"/><linearGradient id="linear-gradient-19" x1="1448.2" y1="1208.24" x2="1186.54" y2="1001.9" gradientTransform="translate(-272.61 592.37) rotate(-24.84)" xlink:href="#linear-gradient"/><linearGradient id="linear-gradient-20" x1="1450.53" y1="1210.39" x2="1185.83" y2="1001.67" gradientTransform="translate(-272.61 592.37) rotate(-24.84)" xlink:href="#linear-gradient"/><linearGradient id="linear-gradient-21" x1="1428.53" y1="1234.21" x2="1166.09" y2="1027.26" gradientTransform="translate(-272.61 592.37) rotate(-24.84)" xlink:href="#linear-gradient"/><linearGradient id="linear-gradient-22" x1="1493.31" y1="1082.38" x2="1230.49" y2="1024.68" gradientUnits="userSpaceOnUse"><stop offset="0" stop-color="#f37b35" stop-opacity="0"/><stop offset="0.44" stop-color="#f37b35" stop-opacity="0.55"/><stop offset="0.79" stop-color="#f37b35"/></linearGradient><linearGradient id="linear-gradient-23" x1="1959.31" y1="626.3" x2="1837.52" y2="375.01" gradientTransform="translate(437.21 -802.81) rotate(27.41)" xlink:href="#linear-gradient"/><linearGradient id="linear-gradient-24" x1="1946.42" y1="632.54" x2="1824.63" y2="381.26" gradientTransform="translate(437.21 -802.81) rotate(27.41)" xlink:href="#linear-gradient"/><linearGradient id="linear-gradient-25" x1="1981.33" y1="615.63" x2="1859.53" y2="364.34" gradientUnits="userSpaceOnUse"><stop offset="0.11" stop-color="#f37b35" stop-opacity="0"/><stop offset="0.19" stop-color="#f37b35" stop-opacity="0.08"/><stop offset="0.37" stop-color="#f37b35" stop-opacity="0.29"/><stop offset="0.61" stop-color="#f37b35" stop-opacity="0.63"/><stop offset="0.85" stop-color="#f37b35"/></linearGradient><linearGradient id="linear-gradient-26" x1="1984.42" y1="787.34" x2="1722.75" y2="581.01" gradientTransform="translate(294.16 -696.47) rotate(18.48)" xlink:href="#linear-gradient"/><linearGradient id="linear-gradient-27" x1="1984.73" y1="786.95" x2="1723.06" y2="580.61" gradientTransform="translate(294.16 -696.47) rotate(18.48)" xlink:href="#linear-gradient"/><linearGradient id="linear-gradient-28" x1="1964.94" y1="812.04" x2="1703.27" y2="605.71" gradientTransform="translate(294.16 -696.47) rotate(18.48)" xlink:href="#linear-gradient"/><linearGradient id="linear-gradient-29" x1="1971.83" y1="803.3" x2="1710.17" y2="596.97" gradientTransform="translate(294.16 -696.47) rotate(18.48)" xlink:href="#linear-gradient"/><linearGradient id="linear-gradient-30" x1="1965.79" y1="810.97" x2="1704.12" y2="604.63" gradientTransform="translate(294.16 -696.47) rotate(18.48)" xlink:href="#linear-gradient"/><linearGradient id="linear-gradient-31" x1="1961.86" y1="797.54" x2="1711.86" y2="594.21" gradientTransform="translate(294.16 -696.47) rotate(18.48)" xlink:href="#linear-gradient-6"/><radialGradient id="radial-gradient-4" cx="36.5" cy="29" r="156.53" gradientUnits="userSpaceOnUse"><stop offset="0" stop-color="#ffdb3b" stop-opacity="0"/><stop offset="0.08" stop-color="#ffdb3b" stop-opacity="0.03"/><stop offset="0.2" stop-color="#ffdb3b" stop-opacity="0.1"/><stop offset="0.34" stop-color="#ffdb3b" stop-opacity="0.22"/><stop offset="0.5" stop-color="#ffdb3b" stop-opacity="0.39"/><stop offset="0.59" stop-color="#ffdb3b" stop-opacity="0.5"/><stop offset="0.74" stop-color="#ffdb3b" stop-opacity="0.37"/><stop offset="0.99" stop-color="#ffdb3b" stop-opacity="0.1"/></radialGradient></defs><title>24_background_1</title><g id="Layer_2" data-name="Layer 2"><g id="Layer_1-2" data-name="Layer 1"><rect class="cls-1" width="1920" height="1080"/><path class="cls-2" d="M1920,1080V433.9c-296.2,112.4-531.27,349-641.73,646.1Z"/><path class="cls-3" d="M1570.23,1075.41c-12.11-17.35-5.34-54.08,10-69.93,14.42-14.93,33-24.82,46.91-39,26.17-26.75,81.45-23.13,97.6,10.4,5.35,11.11,20.19,17.83,22.92,15,17.37-18,25.89.46,35.23,7.66,22,17,25.52,40.31,13.79,64.19-2.32,4.72-5.43,10.55-7.83,16.31h29.5c.47-1.07.91-2.13,1.32-3.15,14.17-35.81,39.49-52.18,77.75-48.78a100.14,100.14,0,0,0,11.53.8c3.68-.1,7.4-.13,11.08-.22V434.21c-79.84,30.27-155.93,68.46-227,116.71-10.72,6.75-20.91,15.5-26.2,19.4C1605.5,612.14,1552.93,664,1500.47,715.9c14,19,14.42,38.33.51,57.46-5.35,7.36-8.32,14.71-5.39,23.8,1.48,4.59,2,11.76-1.85,13-32.31,10.17-9.32,44.61-27.2,61-2.18,2-.19,7.47,5.52,11.22,18.72-21.38,22.9-49.41,33.11-74.53,2-4.93,2.66-10.42,4.76-15.3,2.17-5,5.23-10.33,12.2-6.47,5.77,3.19,9.48,6.58,5.63,14.76-16.4,34.86-15.64,73.24-21.44,110.28-3.06,19.54-3.73,38.26-24.43,52.12-16.76,11.22-5.15,33.1.64,47.17,10.33,25.12,20.23,51.36,41,69.55H1575A19.81,19.81,0,0,1,1570.23,1075.41Z"/><path class="cls-4" d="M1920,1080V433.9c-296.2,112.4-531.27,349-641.73,646.1Z"/><g id="Layer_2_copy_2" data-name="Layer 2 copy 2"><path class="cls-5" d="M1459.41,507.74c-13.37-18.76-41.4-21.62-60.14-5-15.47,13.76-19.46,37.94-10.21,56.75-9.49,14-8,35.33,3.88,44.25,10.67,8,25.32,5,34-5.23,21-24.51,31-35.74,56.42-55.8,8.76-8.27,10.45-22.14,3.12-31.24-6.44-8-18-9.64-27-3.7Z"/><path class="cls-5" d="M1861.66,254c-4.7-15.06-23-24.37-39.51-19.25a29.2,29.2,0,0,0-20,31.89c-9.66,6-13.56,19.42-7.61,28.06,5.36,7.78,16,9.87,24.19,6,19.85-9.31,29.26-13.44,51.05-18.84,7.84-2.69,12.19-10.7,9.33-18.23-2.51-6.61-9.94-10.74-17.4-9.54Z"/><path class="cls-5" d="M1706.34,312.46C1699,300.1,1703.6,281.58,1717,273a25.7,25.7,0,0,1,33.57,5c9.85-3.23,21.26,2.06,23.54,11.45,2.06,8.46-2.87,17.21-10.43,20.69-18.18,8.46-26.61,12.63-43.3,24.81-6.51,3.93-14.53,2.2-17.92-4.33-3-5.73-1.32-13.47,4-18Z"/><path class="cls-5" d="M1466.64,513c-4.74-4.89-5.18-12.64-.94-17.21a8.08,8.08,0,0,1,1.35-1.09c-5.4-8.23-4.68-19.08,1.87-26.06l-.06-.07c-14.43-17.5-11.87-45,6.85-58.94,15.46-11.52,36.49-10.36,49.87,1.08a24.52,24.52,0,0,1,32.91,11.17c5.12,10.65,1.63,23-8.18,29.89-23.57,16.8-34,27.18-54.7,48.3-.17.14-.34.25-.51.39-5.36,5.25-11.17,10.54-13,12.77C1478.24,518,1471.38,517.92,1466.64,513Z"/><path class="cls-5" d="M1710.48,351.07c-2.93-5-9.07-7.13-13.65-4.62a6.73,6.73,0,0,0-1.17.88c-5.47-6.33-14.36-8.16-21.38-4.25l0-.06c-11-15.93-33.68-19.93-48.92-7.43a35.62,35.62,0,0,0-9.81,41.82,21.7,21.7,0,0,0,1.94,29.93c7.47,6.64,18.14,6.47,25.81-.16,18.57-15.91,29.18-22.33,50.6-34.85.15-.11.28-.23.42-.34,5.37-3.3,10.88-7,13.06-8C1712,361.85,1713.4,356.11,1710.48,351.07Z"/><path class="cls-6" d="M1920,198.07a28.2,28.2,0,0,0-19-2.83c-15.76,3.24-25.1,19.89-20.89,35.29l0,.06c-6.1,2.46-9.6,9.12-8.5,15.95a5.44,5.44,0,0,0-1.16.29c-4,1.63-5.86,6.67-4.24,11.18s6,6.59,9.72,4.76c1.78-.87,6.94-2.48,11.81-4.2l.43-.09c12.94-4.9,21.49-8.06,31.83-10.72Z"/><path class="cls-5" d="M1289,673.87c-16.27-11.88-20-38.15-7-56.42a37.13,37.13,0,0,1,46.75-11.76c11.22-9.46,29-8.84,37,2,7.2,9.74,5.38,23.65-2.7,32.19-19.39,20.67-28.25,30.58-43.72,55.23-6.46,8.56-17.93,10.68-25.86,4.12-7-5.76-8.9-16.59-4.39-25.29Z"/><path class="cls-5" d="M1315.15,722.78c-6.36-4.86-15.19-4.3-19.6,1.28a9.11,9.11,0,0,0-1,1.73c-10.25-5.17-22.38-2.82-29.1,5.8l-.09-.06c-22.32-14.44-52.91-7.64-65.36,16.18-10.28,19.67-5.24,44.11,10,58.16-4.77,15.5,4.08,31.93,18.44,36.93,12.93,4.51,26.22-1.28,32.31-13.71,14.8-29.88,24.68-43.57,44.87-70.66.13-.21.23-.44.35-.65,5-7,9.93-14.52,12.12-17C1322.77,735.67,1321.51,727.64,1315.15,722.78Z"/><path class="cls-5" d="M1249.87,823.5c-5.5-4.25-13.16-3.82-17,1a7.91,7.91,0,0,0-.87,1.5c-8.87-4.54-19.4-2.58-25.29,4.86l-.08-.05c-19.28-12.66-45.87-6.93-56.81,13.67a42.77,42.77,0,0,0,8.39,50.52A26.15,26.15,0,0,0,1174,927.16c11.19,4,22.76-1,28.11-11.71,13-25.85,21.66-37.67,39.34-61.06.11-.18.2-.38.31-.56,4.36-6,8.7-12.54,10.62-14.65C1256.41,834.73,1255.36,827.76,1249.87,823.5Z"/></g><g id="Layer_2_copy" data-name="Layer 2 copy"><path class="cls-7" d="M1477.18,542.3c-18.54-15.62-19.32-45.51-.45-64.06,15.58-15.31,41.15-17.66,60.06-6.41,15.4-9,37.52-5.69,45.9,7.55,7.55,11.92,3.21,27.2-8.13,35.58-27.25,20.31-39.77,30.1-62.7,55.41-9.33,8.63-23.94,9.35-32.86.87-7.83-7.43-8.65-19.81-1.73-28.88Z"/><path class="cls-7" d="M1180.6,948.5c-15.36-6.15-23.64-26.23-17-43.33a30.56,30.56,0,0,1,34.88-18.73c7-9.76,21.35-12.85,29.9-5.88,7.7,6.28,9.06,17.67,4.34,26.07-11.28,20.3-16.34,29.93-23.69,52.59-3.42,8.09-12.13,12.07-19.77,8.47-6.7-3.17-10.43-11.36-8.6-19.17Z"/><path class="cls-7" d="M1253.84,788.58c-12.32-8.77-32-5.29-42.07,8.17a27.55,27.55,0,0,0,2.54,35.93c-4.15,10.18.48,22.67,10.1,25.82,8.67,2.84,18.2-1.71,22.43-9.44,10.26-18.59,15.28-27.19,29.31-43.92,4.62-6.59,3.44-15.22-3.11-19.31-5.75-3.59-14-2.44-19.14,2.79Z"/><path class="cls-7" d="M1482.13,550.36c-4.74-5.39-12.79-6.46-17.89-2.33a8.56,8.56,0,0,0-1.25,1.35,22,22,0,0,0-27.36,0l-.07-.07c-17.14-16.63-46-16.06-62.09,2.68-13.25,15.47-13.69,37.83-2.79,52.88a26.2,26.2,0,0,0,9.07,35.71c10.71,6.25,23.85,3.5,31.85-6.34,19.39-23.65,31.06-33.93,54.74-54.17.16-.16.29-.34.45-.51,5.9-5.27,11.89-11,14.36-12.77C1486.37,563,1486.87,555.76,1482.13,550.36Z"/><path class="cls-7" d="M1293.84,796c-5-3.49-6.74-10.15-3.75-14.81a7.14,7.14,0,0,1,1-1.17c-6.18-6.28-7.39-15.84-2.76-23l-.06-.05c-15.77-12.88-18.16-37.21-3.91-52.38,11.77-12.53,30.63-14.92,44.44-7.14a22.5,22.5,0,0,1,31.1,4.38c6.35,8.43,5.33,19.71-2.2,27.32-18.07,18.43-25.61,29.16-40.37,50.87-.12.15-.26.28-.39.42-3.87,5.43-8.13,11-9.37,13.21C1305,798.37,1298.87,799.45,1293.84,796Z"/><path class="cls-7" d="M1184.4,953.62c-4.59-2.07-10-.45-12,3.62a5.85,5.85,0,0,0-.39,1.21,15.16,15.16,0,0,0-17.32,7.76l-.06,0c-15.75-5.65-33.87,2.94-38.49,19.38a30.36,30.36,0,0,0,13.82,34.28,18.51,18.51,0,0,0,16.27,20c8.62.91,16.12-4.57,18.28-13.09,5.3-20.5,9.65-30.34,18.66-49.89.05-.15.08-.3.13-.45,2.18-5,4.28-10.36,5.32-12.17C1190.82,960.44,1189,955.69,1184.4,953.62Z"/><path class="cls-7" d="M1664.06,374.77c-11.12-18.15-38.27-24.15-58.36-11.84a39.76,39.76,0,0,0-16,48.59c-10.77,11.15-11.51,30.05-.84,39.36,9.61,8.38,24.27,7.53,33.83-.36,23.11-18.93,34.16-27.54,61.11-42,9.45-6.18,12.56-18.15,6.33-27.06-5.46-7.81-16.62-10.71-26.06-6.61Z"/><path class="cls-7" d="M1713.08,406.26c-4.57-7.12-3.3-16.42,2.88-20.65a9.51,9.51,0,0,1,1.89-.92c-4.59-11.26-1.19-23.92,8.34-30.36l-.05-.1c-13.32-24.75-3.82-56.62,22-67.95,21.35-9.36,46.47-2.13,59.94,15.15,16.56-3.85,33,6.8,37.12,22.39,3.69,14-3.4,27.66-16.85,33.14-32.37,13.35-47.44,22.75-77.31,42-.23.12-.47.21-.71.32-7.7,4.73-15.95,9.39-18.67,11.52C1725.93,415.33,1717.65,413.37,1713.08,406.26Z"/><path class="cls-7" d="M1920,262a27.35,27.35,0,0,0-3.77.1c-10-17-31.59-26.39-51.75-20.53-24.41,7.1-36.62,34.45-27.61,58.1l0,.1c-9.26,4.64-13.78,15.55-11,26.14a8.56,8.56,0,0,0-1.79.6c-6,3.06-8.24,11.22-5,18.11s10.42,9.6,16.09,6.25c2.68-1.59,10.59-4.78,18-8.11.22-.07.45-.12.67-.2,26.33-12.49,40.75-19.11,66.1-26.34Z"/></g><g id="Layer_2-2" data-name="Layer 2"><path class="cls-8" d="M1364.87,720.42c-18.59-19.9-52.18-19-71.9,3.19-16.28,18.37-17.44,47.19-3.72,67.76-9.16,17.8-4.22,42.43,11.12,51.06,13.81,7.78,30.7,2,39.45-11.18,21.21-31.74,31.48-46.36,58.55-73.55,9.15-11,9.1-27.41-.92-36.92-8.79-8.35-22.73-8.56-32.51-.28Z"/><path class="cls-8" d="M1811.95,355.53c-7.92-17.17-31.33-25.44-50.45-16.86a34.93,34.93,0,0,0-19.34,40.91c-10.73,8.6-13.41,25.12-5,34.48,7.62,8.43,20.7,9.3,30,3.42,22.51-14.07,33.21-20.41,58.64-30.13,9-4.38,13.07-14.56,8.5-23.06-4-7.47-13.58-11.24-22.39-8.69Z"/><path class="cls-8" d="M1633.7,448.52c-10.74-13.55-7.92-36.24,6.86-48.5a31.49,31.49,0,0,1,41.16.79c11.37-5.33,25.9-.79,30.06,10,3.75,9.73-.88,20.88-9.46,26.15-20.62,12.81-30.14,19-48.42,36-7.25,5.66-17.17,4.82-22.23-2.42-4.44-6.36-3.61-15.8,2.06-22Z"/><path class="cls-8" d="M1375.18,723.09c-6.44-5.09-8.13-14.22-3.71-20.29a9.78,9.78,0,0,1,1.46-1.51c-7.73-9-8.49-21.95-1.66-31.23l-.08-.07c-20-18.59-21-51.62-.59-71,16.89-16,42.38-17.84,60.2-6.29,14.15-9.25,32.68-4.91,41.3,8.26,7.76,11.86,5.4,27-5.37,36.73-25.86,23.53-36.91,37.45-58.62,65.66-.18.19-.38.35-.56.54-5.67,7-11.87,14.22-13.73,17.14C1389.89,727.19,1381.62,728.18,1375.18,723.09Z"/><path class="cls-8" d="M1644.48,493.75c-4.28-5.54-12-7.09-17.13-3.41a8.16,8.16,0,0,0-1.28,1.23c-7.54-6.69-18.51-7.5-26.38-1.8l-.06-.07c-15.63-17.24-43.54-18.54-60-1.38-13.61,14.17-15.24,35.84-5.54,51.15a25.72,25.72,0,0,0,6.83,35.25c10,6.75,22.81,4.93,31.06-4.11,20-21.71,31.78-30.94,55.7-49.07.16-.15.3-.31.46-.47,6-4.74,12.06-9.92,14.53-11.47C1647.88,506.31,1648.75,499.28,1644.48,493.75Z"/><path class="cls-8" d="M1818,359.57c-2.63-5.11-1.1-11.38,3.42-13.92a6.69,6.69,0,0,1,1.36-.52c-2.35-7.94.87-16.38,7.84-20.23l0-.07c-7.38-17.64,1.37-38.83,19.86-45.08,15.27-5.16,31.95,1.21,39.95,13.77a21.16,21.16,0,0,1,23.82,17.39c1.54,9.79-4.27,18.67-13.86,21.64-23.09,7.25-34.06,12.8-55.86,24.23-.17.07-.34.11-.51.18-5.6,2.78-11.57,5.49-13.58,6.79C1826.18,366.5,1820.65,364.69,1818,359.57Z"/><path class="cls-8" d="M1185.42,941.07c-21.37-11.63-29.81-42.26-16.95-65.93A45.44,45.44,0,0,1,1223,854.07c12.09-12.94,33.63-14.9,44.88-3.27,10.13,10.47,10,27.26,1.57,38.64-20.25,27.5-29.43,40.61-44.35,72.22-6.5,11.15-20,15.4-30.51,8.82-9.24-5.78-13.2-18.34-9.07-29.36Z"/><path class="cls-8" d="M1224.24,995.17c-8.39-4.8-18.93-2.8-23.41,4.5a10.87,10.87,0,0,0-.94,2.21c-13.12-4.58-27.37,0-34.17,11.3l-.12-.06c-29-13.76-64.85-1-76.27,29.15a57.3,57.3,0,0,0-.82,37.72h107c6.25-12.41,13.34-24.89,22.62-41,.12-.27.21-.55.32-.83,4.95-9.06,9.78-18.75,12.05-22C1235.35,1009.31,1232.63,1000,1224.24,995.17Z"/></g><path class="cls-9" d="M1556.06,736.33c4,13.94,4.7,26.28,16.75,35.95a31.58,31.58,0,0,0,5,3.28c-9.82-9.34-10.7-20.92-14.4-33.89a63.81,63.81,0,0,0-26.28-35.5c-.52-.35-1-.67-1.57-1A62.91,62.91,0,0,1,1556.06,736.33Z"/><path class="cls-10" d="M1477.27,670.54c-3,3.49-8.52,9.81-8.48,10.19.06.63,1.21,1.45,3,3a18.71,18.71,0,0,0,4.74,3,1.33,1.33,0,0,1-.37-.67c-.05-.53,10.47-12.46,10.47-12.46Z"/><path class="cls-11" d="M1520.14,726.88c-11-10.11-23.47-9.08-37.32-11.1a60.66,60.66,0,0,1-18.73-5.82c-2.87-1.45-12.65-7.83-12.65-7.83l-7.75,8.47,4,8.93,11-12.06s9.78,6.37,12.66,7.83a60.66,60.66,0,0,0,18.73,5.82c11.06,1.61,21.22,1.29,30.48,6.24Z"/><path class="cls-12" d="M1675.83,860.34a39.36,39.36,0,0,1-5.77-13.18c-3.36-13.45-5.52-25.81-14.57-36.9a68.51,68.51,0,0,0-16.64-14.74,69.75,69.75,0,0,1,9.3,9.41c9.05,11.09,11.21,23.45,14.57,36.9a39.36,39.36,0,0,0,5.77,13.18c1.08,1.53,5,4.73,5.36,6.36a227.87,227.87,0,0,0-17,18.7c2.43,3.27,5,5.92,6.88,5.95,2.7-3.87,14.37-16.57,17.46-19.31C1680.85,865.07,1676.91,861.87,1675.83,860.34Z"/><path class="cls-13" d="M1595.68,807c-12-.81-23.14-3.27-33.24-9.52,1.17,1,2.36,1.92,3.6,2.83,11.08,8.13,23.46,11.12,37,12,7.7.52,14.85,2.11,21.05,5.49C1616.51,810.68,1606.65,807.76,1595.68,807Z"/><path class="cls-14" d="M1468.79,680.73c.06.63,1.21,1.45,3,3,4.45,4,11.43,5.38,17.14,6.06,14.84,1.76,28,2.38,40.89,11a63.81,63.81,0,0,1,26.28,35.5c4,13.94,4.7,26.28,16.75,35.95,11.56,9.28,24.93,7.16,38.59,9.84,14.52,2.85,27.45,11.41,36.75,22.81,9.05,11.09,11.21,23.45,14.57,36.9a39.36,39.36,0,0,0,5.77,13.18c1.08,1.53,5,4.73,5.36,6.36-3.08,2.74-14.75,15.44-17.46,19.31-4.36-.06-12.14-13.91-14-17.41-6.36-12.07-5.3-27-12.62-38.48-7.9-12.36-20.12-16.82-34.1-17.76-13.52-.91-25.9-3.89-37-12-11.28-8.28-19.74-19.34-23.82-32.8-3.92-12.94-4.12-25.58-14.75-35.32-11-10.11-23.47-9.08-37.32-11.1a60.66,60.66,0,0,1-18.73-5.82c-2.87-1.45-12.65-7.83-12.65-7.83l-11,12.06-31.27-69,70.14,23.08S1468.74,680.2,1468.79,680.73Z"/><path class="cls-15" d="M1638.21,659.7c3.21,14.14,3.27,26.5,14.78,36.81a31.58,31.58,0,0,0,4.8,3.54c-9.29-9.86-9.55-21.47-12.54-34.63a63.81,63.81,0,0,0-24.32-36.87c-.5-.38-1-.72-1.51-1.08A62.91,62.91,0,0,1,1638.21,659.7Z"/><path class="cls-16" d="M1563.11,589.74c-3.23,3.32-9,9.33-9,9.72,0,.63,1.13,1.51,2.8,3.16a18.71,18.71,0,0,0,4.57,3.25,1.33,1.33,0,0,1-.34-.68c0-.53,11.13-11.87,11.13-11.87Z"/><path class="cls-17" d="M1602.86,648.32c-10.47-10.69-22.95-10.34-36.67-13.11a60.66,60.66,0,0,1-18.39-6.82c-2.79-1.6-12.21-8.5-12.21-8.5l-8.2,8,3.55,9.13,11.68-11.45s9.42,6.9,12.21,8.5a60.66,60.66,0,0,0,18.39,6.82c11,2.21,21.12,2.44,30.1,7.88Z"/><path class="cls-18" d="M1751.08,790a39.36,39.36,0,0,1-5-13.48c-2.63-13.62-4.11-26.07-12.54-37.64a68.51,68.51,0,0,0-15.81-15.62,69.75,69.75,0,0,1,8.78,9.9c8.44,11.57,9.92,24,12.55,37.64a39.36,39.36,0,0,0,5,13.48c1,1.59,4.76,5,5,6.64a227.86,227.86,0,0,0-18,17.75c2.25,3.4,4.65,6.18,6.55,6.31,2.91-3.72,15.25-15.77,18.48-18.34C1755.84,795,1752.08,791.61,1751.08,790Z"/><path class="cls-19" d="M1673.94,732.44c-12-1.46-22.92-4.52-32.68-11.3,1.11,1,2.25,2,3.44,3,10.63,8.72,22.82,12.37,36.27,14,7.66.93,14.71,2.91,20.72,6.62C1694.54,737.22,1684.85,733.77,1673.94,732.44Z"/><path class="cls-20" d="M1554.09,599.45c0,.63,1.13,1.51,2.8,3.16,4.23,4.19,11.12,6,16.78,7,14.72,2.56,27.85,3.9,40.23,13.23a63.81,63.81,0,0,1,24.32,36.87c3.21,14.14,3.27,26.5,14.78,36.81,11,9.89,24.51,8.5,38,11.91,14.35,3.63,26.79,12.88,35.46,24.77,8.44,11.57,9.92,24,12.55,37.64a39.36,39.36,0,0,0,5,13.48c1,1.59,4.76,5,5,6.64-3.23,2.57-15.57,14.61-18.48,18.34-4.35-.3-11.37-14.54-13-18.14-5.69-12.4-3.83-27.29-10.51-39.11-7.22-12.77-19.17-17.88-33.09-19.58-13.45-1.64-25.65-5.29-36.27-14-10.82-8.88-18.67-20.39-22-34-3.21-13.13-2.72-25.77-12.81-36.07-10.47-10.69-22.95-10.34-36.67-13.11a60.66,60.66,0,0,1-18.39-6.82c-2.79-1.6-12.21-8.5-12.21-8.5l-11.68,11.45-27.48-70.6,68.79,26.85S1554.06,598.92,1554.09,599.45Z"/><path class="cls-21" d="M1484.07,830.49c6.09,13.16,8.72,25.23,22.13,32.91a31.58,31.58,0,0,0,5.43,2.46c-11.15-7.7-13.82-19-19.49-31.25a63.81,63.81,0,0,0-31.48-31c-.57-.27-1.14-.5-1.7-.74A62.91,62.91,0,0,1,1484.07,830.49Z"/><path class="cls-22" d="M1395.47,779.21c-2.47,3.92-6.33,9.55-6.24,9.92.16.61,1.42,1.24,3.39,2.51a18.71,18.71,0,0,0,5.15,2.22,1.33,1.33,0,0,1-.47-.6c-.14-.52,7.85-12.47,7.85-12.47Z"/><path class="cls-23" d="M1447.12,826.73c-12.47-8.27-24.6-5.33-38.6-5.17a60.66,60.66,0,0,1-19.41-2.84c-3.06-1-13.72-5.77-13.72-5.77l-6.91,11,5.38,8.19,7.87-12.69s10.66,4.78,13.72,5.77a60.66,60.66,0,0,0,19.41,2.84c11.17-.13,22.89-4.43,32.81-1Z"/><path class="cls-24" d="M1621.65,934.4a39.36,39.36,0,0,1-7.75-12.13c-5.41-12.77-9.46-24.64-20.12-34.19a68.51,68.51,0,0,0-18.72-12A69.75,69.75,0,0,1,1585.7,884c10.66,9.55,14.71,21.42,20.12,34.19a39.36,39.36,0,0,0,7.75,12.13c1.31,1.34,5.7,3.89,6.28,5.45a227.86,227.86,0,0,0-13.9,21.11c2.91,2.85,5.84,5.08,7.72,4.81,2.07-4.25,11.63-18.6,14.25-21.79C1627.34,938.29,1623,935.74,1621.65,934.4Z"/><path class="cls-25" d="M1534.19,894.18c-12,1.07-23.36.36-34.32-4.24,1.3.78,2.63,1.53,4,2.23,12.21,6.31,24.9,7.34,38.4,6.14,7.68-.68,15-.22,21.65,2.15C1555.33,894.55,1545.14,893.2,1534.19,894.18Z"/><path class="cls-26" d="M1389.23,789.12c.16.61,1.42,1.24,3.39,2.51,5,3.22,12.13,3.54,17.87,3.32,14.93-.57,28.05-2,42.1,4.55a63.81,63.81,0,0,1,31.48,31c6.09,13.16,8.72,25.23,22.13,32.91,12.86,7.37,25.74,3.2,39.65,3.72,14.79.56,28.88,7,39.85,16.83,10.66,9.55,14.71,21.42,20.12,34.19a39.36,39.36,0,0,0,7.75,12.13c1.31,1.34,5.7,3.89,6.28,5.45-2.62,3.18-12.18,17.54-14.25,21.79-4.31.62-14.16-11.85-16.52-15-8.16-10.94-9.44-25.89-18.44-36.06-9.73-11-22.48-13.49-36.45-12.25-13.5,1.2-26.19.17-38.4-6.14-12.43-6.42-22.51-16-28.62-28.7-5.88-12.17-8-24.63-20.05-32.6-12.47-8.27-24.6-5.33-38.6-5.17a60.66,60.66,0,0,1-19.41-2.84c-3.06-1-13.72-5.77-13.72-5.77l-9,13.63-41.61-63.31,72.88,11.91S1389.09,788.61,1389.23,789.12Z"/><path class="cls-27" d="M1375,1036c9.47,11,15.3,21.87,30.3,25.59a31.58,31.58,0,0,0,5.9.88c-12.83-4.35-18.5-14.49-27.31-24.71a63.81,63.81,0,0,0-38.77-21.18c-.62-.1-1.23-.17-1.84-.24A62.91,62.91,0,0,1,1375,1036Z"/><path class="cls-28" d="M1275.16,1010.78c-1.3,4.44-2.89,11.1-2.69,11.44.32.55,1.71.8,3.95,1.48a18.71,18.71,0,0,0,5.56.73,1.33,1.33,0,0,1-.62-.45c-.27-.46,3.55-14.33,3.55-14.33Z"/><path class="cls-29" d="M1338.45,1042.52c-14.26-4.54-25.12,1.62-38.53,5.6a60.66,60.66,0,0,1-19.44,2.59c-3.21-.11-14.77-1.79-14.77-1.79l-4.2,13.07,7.42,6.4,3.88-13.65s11.56,1.67,14.77,1.79a60.66,60.66,0,0,0,19.44-2.59c10.71-3.18,21.59-11.81,32.08-11.21Z"/><path class="cls-30" d="M1487.4,1059.57c-13.23-6.44-28.56-8.78-42.93-5.26-13.52,3.31-24.76,10.85-39.15,7.29-15-3.71-20.84-14.6-30.3-25.59a63.81,63.81,0,0,0-38.77-21.18c-15.31-2.45-27.53,2.52-41.74,7.16-5.46,1.78-12.4,3.42-18.1,1.7-2.24-.68-3.63-.93-3.95-1.48s4.27-15.7,4.27-15.7l-73.35,8.52,57.36,49.48,5-15.59s11.56,1.67,14.77,1.79a60.66,60.66,0,0,0,19.44-2.59c13.42-4,24.28-10.14,38.53-5.6,13.74,4.37,19.23,15.76,28.22,25.86a60.18,60.18,0,0,0,14.05,11.62h73a39,39,0,0,1,11.46,0h45.36C1504,1071.85,1497.48,1064.47,1487.4,1059.57Z"/><path class="cls-31" d="M1898.07,382.35c-4.31,1.69-12.08,4.78-12.22,5.14-.23.59.41,1.84,1.25,4a18.71,18.71,0,0,0,2.83,4.84,1.33,1.33,0,0,1,0-.76c.2-.5,15-6.24,15-6.24Z"/><path class="cls-32" d="M1910.19,452.1c-5.14-14.05-16.66-18.87-28-27a60.66,60.66,0,0,1-13.95-13.79c-1.88-2.61-7.63-12.77-7.63-12.77l-10.78,3.95-.52,9.79,15.36-5.62s5.75,10.16,7.63,12.77a60.66,60.66,0,0,0,13.95,13.79c9.07,6.52,18.24,10.91,24.19,19.57C1910.33,452.53,1910.26,452.32,1910.19,452.1Z"/><path class="cls-33" d="M1920,419.81c-6.06-5.61-13.1-10-20.48-15-4.76-3.23-10.3-7.71-12.42-13.27-.84-2.19-1.48-3.44-1.25-4s15-6.24,15-6.24l-51.64-52.78-4,75.65,15.36-5.62s5.75,10.16,7.63,12.77a60.66,60.66,0,0,0,13.95,13.79c11.37,8.17,22.88,13,28,27,4.95,13.54-.69,24.86-3.17,38.14-2.58,13.82-.17,27.54,6,40.08a56.55,56.55,0,0,0,6.95,10.76Z"/><path class="cls-34" d="M1830.46,527.47c-.65,14.48-3.87,26.41,4.49,39.41a31.58,31.58,0,0,0,3.69,4.69c-6.35-12-3.52-23.23-2.92-36.71a63.81,63.81,0,0,0-13.67-42c-.38-.5-.78-1-1.17-1.44A62.91,62.91,0,0,1,1830.46,527.47Z"/><path class="cls-35" d="M1776.59,440.1c-4,2.34-11.19,6.6-11.28,7-.14.62.69,1.76,1.86,3.79a18.71,18.71,0,0,0,3.55,4.35,1.33,1.33,0,0,1-.14-.75c.12-.52,13.88-8.5,13.88-8.5Z"/><path class="cls-36" d="M1799.39,507.13c-7.26-13.08-19.38-16.06-31.88-22.36a60.66,60.66,0,0,1-15.92-11.45c-2.26-2.29-9.52-11.43-9.52-11.43l-10,5.58,1,9.75,14.3-7.94s7.26,9.15,9.52,11.43a60.66,60.66,0,0,0,15.92,11.45c10,5,19.72,7.95,26.93,15.58Z"/><path class="cls-37" d="M1904.74,683.05a39.36,39.36,0,0,1-1.3-14.33c1.08-13.82,2.95-26.23-2.12-39.62a68.51,68.51,0,0,0-11.1-19.26,69.75,69.75,0,0,1,5.84,11.87c5.07,13.39,3.2,25.79,2.12,39.62a39.36,39.36,0,0,0,1.3,14.33c.54,1.79,3.27,6.08,3.06,7.73a227.87,227.87,0,0,0-22.06,12.34c1.27,3.87,2.85,7.2,4.64,7.82,3.79-2.82,18.89-11.16,22.68-12.78C1908,689.13,1905.28,684.85,1904.74,683.05Z"/><path class="cls-38" d="M1845.63,607.08c-11.14-4.58-20.91-10.43-28.51-19.56.8,1.29,1.63,2.57,2.52,3.82,7.93,11.22,18.73,18,31.26,23.13,7.14,2.93,13.42,6.71,18.23,11.88C1864.22,617.15,1855.79,611.26,1845.63,607.08Z"/><path class="cls-39" d="M1765.32,447.08c-.14.62.69,1.76,1.86,3.79,3,5.16,9.13,8.73,14.33,11.18,13.52,6.37,25.82,11.14,35.28,23.43a63.81,63.81,0,0,1,13.67,42c-.65,14.48-3.87,26.41,4.49,39.41,8,12.46,21.38,14.69,33.48,21.56,12.87,7.3,22.41,19.52,27.62,33.28,5.07,13.39,3.2,25.79,2.12,39.62a39.36,39.36,0,0,0,1.3,14.33c.54,1.79,3.27,6.08,3.06,7.73-3.79,1.62-18.88,10-22.68,12.78-4.11-1.44-7.11-17-7.75-20.95-2.2-13.47,3.54-27.33.23-40.5-3.58-14.23-13.75-22.33-26.71-27.65-12.53-5.15-23.33-11.9-31.26-23.13-8.08-11.43-12.59-24.61-12.19-38.66.39-13.51,4.2-25.57-2.79-38.17-7.26-13.08-19.38-16.06-31.88-22.36a60.66,60.66,0,0,1-15.92-11.45c-2.26-2.29-9.52-11.43-9.52-11.43l-14.3,7.94L1720,394.46l59.21,44.12S1765.43,446.56,1765.32,447.08Z"/><path class="cls-40" d="M120,16.36,148.11,0H0V154.57L25.36,111a3.1,3.1,0,0,1,5.65.64l20,64.18a3.1,3.1,0,0,0,6.06-.68l5.25-67a3.1,3.1,0,0,1,5.36-1.88l45.9,49.13a3.1,3.1,0,0,0,5.16-3.24L94.43,89.44a3.1,3.1,0,0,1,4-4l62.67,24.35a3.1,3.1,0,0,0,3.24-5.16l-49.13-45.9a3.1,3.1,0,0,1,1.88-5.36l67-5.25a3.1,3.1,0,0,0,.68-6.06L120.64,22A3.1,3.1,0,0,1,120,16.36Z"/></g></g></svg>