<svg xmlns="http://www.w3.org/2000/svg" viewBox="0 0 72.22 72.22"><defs><style>.cls-1{fill:#4c73bf;}.cls-2{fill:#fff;}.cls-3{fill:#f04745;}.cls-4{fill:#3f703a;}</style></defs><title>ets_logo</title><g id="Layer_2" data-name="Layer 2"><g id="Layer_1-2" data-name="Layer 1"><path class="cls-1" d="M63.65,19.3A29,29,0,0,0,9,19.3s16-4.49,27.38,3.58c0,0,9.35-7.82,27.28-3.58"/><path class="cls-2" d="M4.7,51.19l.6.81c.25.34.6.79.42,1.21l0,0,1.16-.86,0,0a1.33,1.33,0,0,1-.43-.43l-1-1.31,2-1.5a7,7,0,0,1,.9,1.06,1.94,1.94,0,0,1,.52,1.62l0,0,1.28-.95,0,0a1.39,1.39,0,0,1-.43-.48L7.19,46.83l0,0c.21.72-.64,1.25-1.14,1.62L1.89,51.53c-.49.37-1.25,1-1.86.61l0,0,3.36,4.59,1.8-.56,0,0A3.37,3.37,0,0,1,3,54.6l-.89-1.49Z"/><path class="cls-2" d="M11.15,58.37l-2-1.81,3.3-1.63Zm-.39,1L10,61.31c-.37,1-.39,1.14-1.09.92l0,0L11,64.14l0,0a3.24,3.24,0,0,1,.32-2.35l2.61-7.09-1.59-1.46,0,0c.33.6-.23.85-.71,1.08L6.12,57a3.05,3.05,0,0,1-2.28.55l0,0,1.85,1.7,0,0c-.32-.63,0-.86.74-1.23l1.81-.94Z"/><path class="cls-2" d="M16.13,56.63l0,0c.47.58-.13,1.39-.44,1.93L13,63c-.31.53-.74,1.44-1.47,1.3l0,0,2.23,1.34,0,0c-.47-.58.11-1.38.43-1.93l3.12-5.26c.3.12.57.24.85.37a1.57,1.57,0,0,1,.73,2.21c-.66,1.1-2,.89-3,.47l.1,2.29.36,2.63a1.81,1.81,0,0,0,1,1.4l1.07.64a9.47,9.47,0,0,1-.92-2.78l-.42-3.14a2.65,2.65,0,0,0,3.09-1c.63-1.06.26-2.4-1.3-3.33Z"/><path class="cls-2" d="M25.41,62.33l1.15.39c.42.15.91.39.93.9h0l.94-1.4h0a1.53,1.53,0,0,1-.62-.12l-5.11-1.76a2.15,2.15,0,0,1-.45-.25h0l-1,1.38h0a2.38,2.38,0,0,1,1.7,0l1.13.39-2,5.77c-.2.58-.44,1.56-1.16,1.58v0l2.54.88v0c-.54-.64-.36-1.14-.11-1.87Z"/><path class="cls-2" d="M34.42,67.66l-.26,2.46c-.06.61-.07,1.61-.79,1.8v0l2.58.27v0c-.66-.33-.47-1.31-.41-1.93l.54-5.14c.06-.61.08-1.61.79-1.8v0L34.29,63v0c.67.32.47,1.31.4,1.94l-.17,1.69-4.88-.52.17-1.69c.07-.62.09-1.63.79-1.81v0L28,62.35v0c.66.33.47,1.31.4,1.92l-.54,5.14c-.06.61-.08,1.61-.78,1.8v0l2.56.27v0c-.65-.33-.47-1.31-.4-1.93l.26-2.46Z"/><path class="cls-2" d="M42.49,66.27l.78-.13c.28,0,.64-.06.8.23h0l.1-1.08h0a1,1,0,0,1-.39.13L40.34,66A1.48,1.48,0,0,1,40,66h0l-.12,1.09h0a1.51,1.51,0,0,1,1-.52l.76-.13.63,3.87c.06.39.22,1-.19,1.25v0l1.7-.28v0c-.5-.19-.54-.54-.62-1Z"/><path class="cls-2" d="M47.2,65a2.33,2.33,0,0,1,2.85,1.74,2.14,2.14,0,0,1-1.39,2.85,2.37,2.37,0,0,1-2.88-1.71A2.17,2.17,0,0,1,47.2,65Zm-.13-.62a3.11,3.11,0,0,0-2.21,3.87,3.05,3.05,0,0,0,3.94,2,3.14,3.14,0,0,0,2.15-3.93A3,3,0,0,0,47.07,64.34Z"/><path class="cls-2" d="M56.16,56.42a6.68,6.68,0,0,0-1.86.86c-1.39.9-2.51,2.41-1.59,3.86,1.57,2.43,5.28-.45,6.44,1.34.52.8-.22,1.83-.86,2.25a4.66,4.66,0,0,1-3.11.68l1.25,1.22a7.06,7.06,0,0,0,2.26-1c1.78-1.16,2.32-3.14,1.53-4.37-1.37-2.12-5.28.46-6.29-1.11-.51-.79.15-1.58.8-2A3.05,3.05,0,0,1,57,57.72Z"/><path class="cls-2" d="M61.55,57.36l5,.78a2,2,0,0,0,1.5-.67l.91-.9,0,0a4.32,4.32,0,0,1-2.06.23l-4.48-.63-.58-5.08h0l-1.74,1.73,0,0c.93-.34.95.83,1.07,1.61Zm.81,3.05c.43.44,1.19,1.11.88,1.78l0,0,1.86-1.83,0,0c-.68.31-1.31-.46-1.75-.92l-3.59-3.67c-.43-.44-1.2-1.11-.87-1.77l0,0L57,55.81l0,0c.67-.3,1.32.47,1.75.91Z"/><path class="cls-2" d="M68.58,50l-2.33-5.6-1.32,2,0,0c.73-.43,1.1.2,1.26.58l1.17,2.81-4.16-.15a1.19,1.19,0,0,0-.88.64l-.68,1a3.33,3.33,0,0,1,1.88-.3l4.27.13,1.67,1.12c.53.36,1.32.77,1.24,1.52l0,0,1.46-2.22,0,0c-.81.29-1.15.06-1.82-.39Z"/><path class="cls-3" d="M42.85,12.78a6.49,6.49,0,1,1-6.49-6.53,6.51,6.51,0,0,1,6.49,6.53"/><path class="cls-4" d="M9,19.31s16.47-1.93,27.39,7.87c0,0,9.3-9.27,27.28-7.87A29.1,29.1,0,1,1,7.24,29.25,29.86,29.86,0,0,1,9,19.31"/><path class="cls-2" d="M46.36,56.66C51.65,7.51,9,19.3,9,19.3H9s39.35-4.7,37.36,37.39Z"/><path class="cls-2" d="M26.38,56.66C21.09,7.51,63.75,19.3,63.75,19.3h0s-39.35-4.7-37.37,37.39Z"/><path class="cls-2" d="M26.4,56.73C29.12,53.22,32,49.91,35,46.65s6-6.43,9.12-9.55,6.27-6.17,9.51-9.15,6.55-5.89,10-8.62c-2.72,3.5-5.63,6.82-8.59,10.08S49.07,35.85,46,39s-6.28,6.17-9.52,9.15-6.55,5.89-10,8.62"/><path class="cls-2" d="M46.36,56.69c-3.5-2.73-6.81-5.64-10.07-8.61s-6.43-6-9.55-9.14-6.17-6.29-9.15-9.54S11.69,22.83,9,19.33C12.46,22.06,15.78,25,19,27.94s6.43,6,9.55,9.14,6.17,6.29,9.15,9.54,5.89,6.57,8.63,10.07"/></g></g></svg>