<svg xmlns="http://www.w3.org/2000/svg" viewBox="0 0 269.63 263.83"><defs><style>.cls-1,.cls-3{fill:#062a55;}.cls-1{opacity:0.48;}.cls-2{opacity:0.65;}.cls-4{fill:#e7bb50;}.cls-5{fill:#d39d24;}.cls-6{fill:#ffe9b8;}</style></defs><title>gears3</title><g id="Layer_2" data-name="Layer 2"><g id="Layer_1-2" data-name="Layer 1"><path class="cls-1" d="M143.73,172.13a83.89,83.89,0,0,0-6.43-24.31l-.38.22c1.49-1.27,3-2.6,4.37-4s2.5-2.65,3.68-4l0,.05a90.08,90.08,0,0,0,24.25,6.52l5.49-9.51a83.87,83.87,0,0,0-17.59-17.73,65.42,65.42,0,0,0,2.75-10.61v.47a90,90,0,0,0,24.26-6.48v-11a84,84,0,0,0-24.26-6.59v.22A64,64,0,0,0,157,74.54,90.29,90.29,0,0,0,174.58,57l-5.49-9.51a83.82,83.82,0,0,0-24.19,6.38q-1.71-2-3.59-3.84t-3.84-3.6l.11.06a90.05,90.05,0,0,0,6.52-24.25l-9.51-5.49a83.93,83.93,0,0,0-17.71,17.56A63.58,63.58,0,0,0,106,31.48,90,90,0,0,0,99.58,7.31h-11A84,84,0,0,0,82,31.56a64.19,64.19,0,0,0-9.92,2.58,90.12,90.12,0,0,0-17.7-17.73L44.88,21.9a83.84,83.84,0,0,0,6.43,24.31l.06,0C50,47.39,48.57,48.66,47.21,50s-2.51,2.67-3.69,4a90.12,90.12,0,0,0-24.2-6.5l-5.49,9.51A83.9,83.9,0,0,0,31.45,74.83a65.47,65.47,0,0,0-2.69,10.48v-.49A89.87,89.87,0,0,0,4.5,91.31v11a83.93,83.93,0,0,0,24.26,6.59v-.21a63.89,63.89,0,0,0,2.87,11,90.08,90.08,0,0,0-17.7,17.68l5.49,9.51a83.93,83.93,0,0,0,24.31-6.43l-.35-.6c1.21,1.41,2.48,2.8,3.83,4.15,1.67,1.67,3.4,3.19,5.16,4.64l-1.53-.89A90,90,0,0,0,44.31,172l9.51,5.49a84,84,0,0,0,17.83-17.72l-.41-.24a64.11,64.11,0,0,0,11.12,3,90.07,90.07,0,0,0,6.47,24.2h11a83.9,83.9,0,0,0,6.58-24.22,63.24,63.24,0,0,0,10.13-2.63,90.11,90.11,0,0,0,17.72,17.74ZM119.79,122.5a34.7,34.7,0,0,1-25.47,10.58A36.14,36.14,0,0,1,58.25,97,36.14,36.14,0,0,1,94.31,61,36.14,36.14,0,0,1,130.38,97,34.71,34.71,0,0,1,119.79,122.5ZM249.91,64.91a36.41,36.41,0,0,0,.46-5.87,90.82,90.82,0,0,0,19.27-14l-3.88-10.27a84.25,84.25,0,0,0-24,2.2,32.55,32.55,0,0,0-8.45-6.88,90.79,90.79,0,0,0-2.5-23.83L220,4.5a84.14,84.14,0,0,0-10.09,21.86,32.56,32.56,0,0,0-10.46,4.09,91,91,0,0,0-21.74-9.67l-6.95,8.5A84.15,84.15,0,0,0,184.62,49a34.59,34.59,0,0,0-1.7,10.94,90.82,90.82,0,0,0-19.27,14l3.88,10.27A84.3,84.3,0,0,0,191.47,82a32.38,32.38,0,0,0,8.66,7,90.69,90.69,0,0,0,2.5,23.63l10.84,1.77a84.18,84.18,0,0,0,10.07-21.82,32.54,32.54,0,0,0,10.19-4,90.78,90.78,0,0,0,21.88,9.75l6.95-8.5a84.12,84.12,0,0,0-13.91-19.68A35.61,35.61,0,0,0,249.91,64.91Zm-21.37-3.49a12.06,12.06,0,1,1-18.93-11.73,12.05,12.05,0,0,1,18.93,11.73Zm4.52,111.2a90.61,90.61,0,0,0,12-21l-7.77-7.77a84.26,84.26,0,0,0-21.13,12,43.17,43.17,0,0,0-11.24-4.6,90.66,90.66,0,0,0-6.34-23.33h-11a84.18,84.18,0,0,0-6.45,23.36,43.3,43.3,0,0,0-11.33,4.7A90.91,90.91,0,0,0,149,144l-7.77,7.77a84.4,84.4,0,0,0,11.9,21,43.32,43.32,0,0,0-4.68,11.52,90.74,90.74,0,0,0-23,6.3v11A84.25,84.25,0,0,0,148.59,208a43.2,43.2,0,0,0,4.83,11.42,90.84,90.84,0,0,0-11.89,20.81l7.77,7.77a84.16,84.16,0,0,0,21.06-11.95,43.36,43.36,0,0,0,11.42,4.56,90.65,90.65,0,0,0,6.32,23.22h11a84,84,0,0,0,6.47-23.47,43.12,43.12,0,0,0,11.14-4.75,90.59,90.59,0,0,0,20.94,12l7.77-7.77a84.12,84.12,0,0,0-12-21.19,43.36,43.36,0,0,0,4.48-11.14,90.52,90.52,0,0,0,23.51-6.36v-11a83.91,83.91,0,0,0-23.64-6.5A43.3,43.3,0,0,0,233.06,172.62Zm-23.46,39.83a23.4,23.4,0,1,1,6.88-16.59A22.58,22.58,0,0,1,209.61,212.45Z"/><g class="cls-2"><path class="cls-3" d="M204.27,239.26l.91-.25a41.9,41.9,0,0,0,10.78-4.6l.82-.5.76.59a89,89,0,0,0,19.76,11.44l6.45-6.45a82.78,82.78,0,0,0-11.5-20l-.58-.74.47-.82a42.15,42.15,0,0,0,4.33-10.78l.23-.93,1-.12a89,89,0,0,0,22.28-5.92v-9.11a82.56,82.56,0,0,0-22.4-6l-.95-.11-.24-.92a42.08,42.08,0,0,0-4.48-10.69l-.49-.82.59-.75a89,89,0,0,0,11.49-19.82L237,145.49a83,83,0,0,0-19.93,11.45l-.75.59-.82-.48a42,42,0,0,0-10.87-4.45l-.93-.24-.12-.95a89.17,89.17,0,0,0-5.89-22.11h-9.11a82.93,82.93,0,0,0-6,22.13l-.12.95-.93.24a42.08,42.08,0,0,0-11,4.55l-.82.48-.75-.58a89.36,89.36,0,0,0-19.69-11.39l-6.44,6.45a83,83,0,0,0,11.35,19.8l.58.75-.48.82a42.11,42.11,0,0,0-4.53,11.15l-.23.93-1,.12a89.32,89.32,0,0,0-21.83,5.85v9.11a83,83,0,0,0,22,6l.94.12.24.92a42,42,0,0,0,4.67,11l.49.82-.59.76a89.32,89.32,0,0,0-11.34,19.63l6.45,6.45A82.84,82.84,0,0,0,169.49,235l.74-.58.82.47a42.15,42.15,0,0,0,11.06,4.41l.94.23.12,1a89.15,89.15,0,0,0,5.87,22h9.11a82.68,82.68,0,0,0,6-22.24ZM193,220.72a24.88,24.88,0,1,1,17.56-7.28A24,24,0,0,1,193,220.72Z"/><path class="cls-3" d="M105.11,161.3l1-.18a62.08,62.08,0,0,0,9.9-2.57l1-.34.61.83a88.5,88.5,0,0,0,16.71,16.89l7.89-4.55a82.48,82.48,0,0,0-6.21-23l.76-.33L136,147c1.6-1.37,3-2.66,4.29-4s2.51-2.66,3.61-3.93l3,.29a89.7,89.7,0,0,0,21.53,5.69l4.56-7.89a82.45,82.45,0,0,0-16.75-16.71l-.83-.61.34-1a64.29,64.29,0,0,0,2.7-10.38l1.31.11-.09-.8a88.4,88.4,0,0,0,23-6V92.67a82.55,82.55,0,0,0-23-6.12l.11-1.05-1.34.11A63,63,0,0,0,155.72,75l-.34-1,.83-.62a88.7,88.7,0,0,0,16.69-16.54L168.34,49a82.44,82.44,0,0,0-22.88,6.17l-.94.41-.68-.78c-1.12-1.28-2.3-2.55-3.53-3.77s-2.5-2.42-3.77-3.53l.79-1.1-1-.46A88.39,88.39,0,0,0,142.58,23l-7.89-4.56A82.53,82.53,0,0,0,118,35.14l-.62.84-1-.35a62.54,62.54,0,0,0-10.59-2.76l-1-.17-.12-1a88.4,88.4,0,0,0-6-22.93H89.53a82.56,82.56,0,0,0-6.12,23l-.11,1-1,.18a63,63,0,0,0-9.71,2.52l-1,.34L71,35A88.5,88.5,0,0,0,54.28,18.1l-7.89,4.56a82.44,82.44,0,0,0,6.21,23l-1.13.5.82,1.09c-1.5,1.29-2.84,2.52-4.09,3.77s-2.51,2.67-3.62,4l-.67.78L43,55.35a88.49,88.49,0,0,0-22.9-6.27L15.5,57A82.52,82.52,0,0,0,32.28,73.71l.83.61-.34,1a64.36,64.36,0,0,0-2.63,10.26l-1.31-.11.09.78a88.21,88.21,0,0,0-23,6v9.11a82.56,82.56,0,0,0,23,6.12l-.12,1.07,1.35-.11A62.83,62.83,0,0,0,33,119.22l.35,1-.83.62a88.47,88.47,0,0,0-16.85,16.67l4.56,7.89a82.55,82.55,0,0,0,23-6.21l.23.51,1.05-.75c1.28,1.5,2.51,2.83,3.76,4.08,1.46,1.46,3.07,2.91,5.06,4.55l-1.59,2.29-.16-.09a89.59,89.59,0,0,0-5.67,21.5l7.89,4.56A82.64,82.64,0,0,0,70.53,159l.64.47.56-1.19a63.08,63.08,0,0,0,10.87,2.91l1,.18.12,1a88.43,88.43,0,0,0,6,23h9.11a82.5,82.5,0,0,0,6.11-23Zm-10.8-26.82A37.54,37.54,0,0,1,56.85,97,37.54,37.54,0,0,1,94.31,59.55,37.54,37.54,0,0,1,131.78,97a37.54,37.54,0,0,1-37.46,37.46Z"/><path class="cls-3" d="M242.07,38.34l-.82.2-.56-.63a31.32,31.32,0,0,0-8.09-6.59l-.74-.42,0-.85A89.3,89.3,0,0,0,229.64,7.5l-9-1.47a82.89,82.89,0,0,0-9.43,20.73l-.24.81-.83.17a31.32,31.32,0,0,0-10,3.92l-.73.44-.73-.45a89.5,89.5,0,0,0-20.51-9.24l-5.77,7.05A82.84,82.84,0,0,0,185.63,48l.57.6-.25.79a33.19,33.19,0,0,0-1.63,10.52v.84l-.74.4A89.36,89.36,0,0,0,165.3,74.29l3.22,8.52a82.89,82.89,0,0,0,22.62-2.19l.82-.2.56.63a31.12,31.12,0,0,0,8.29,6.66l.75.41,0,.86a89.22,89.22,0,0,0,2.25,22.36l9,1.47a82.92,82.92,0,0,0,9.42-20.68l.24-.81.82-.17A31.29,31.29,0,0,0,233,87.3l.74-.44.73.45a89.27,89.27,0,0,0,20.65,9.32l5.77-7.05A82.81,82.81,0,0,0,247.63,71l-.58-.6.25-.79a34.3,34.3,0,0,0,1.22-5A34.88,34.88,0,0,0,249,59v-.84l.74-.4A89.37,89.37,0,0,0,268,44.66l-3.22-8.52A83,83,0,0,0,242.07,38.34ZM229.92,61.65A13.53,13.53,0,0,1,216.77,73a14.25,14.25,0,0,1-2.29-.19,13.49,13.49,0,0,1-11.12-15.45,13.46,13.46,0,0,1,26.56,4.34Z"/></g><path class="cls-4" d="M139.23,167.63a83.89,83.89,0,0,0-6.43-24.31l-.38.22c1.49-1.27,3-2.6,4.37-4s2.5-2.65,3.68-4l0,.05a90.08,90.08,0,0,0,24.25,6.52l5.49-9.51a83.87,83.87,0,0,0-17.59-17.73,65.42,65.42,0,0,0,2.75-10.61v.47a90,90,0,0,0,24.26-6.48v-11a84,84,0,0,0-24.26-6.59v.22A64,64,0,0,0,152.54,70a90.29,90.29,0,0,0,17.53-17.55L164.59,43a83.82,83.82,0,0,0-24.19,6.38q-1.71-2-3.59-3.84T133,41.92l.11.06a90.05,90.05,0,0,0,6.52-24.25l-9.51-5.49a83.93,83.93,0,0,0-17.71,17.56A63.58,63.58,0,0,0,101.54,27,90,90,0,0,0,95.08,2.81h-11a84,84,0,0,0-6.58,24.25,64.19,64.19,0,0,0-9.92,2.58,90.12,90.12,0,0,0-17.7-17.73L40.38,17.4a83.84,83.84,0,0,0,6.43,24.31l.06,0c-1.42,1.22-2.81,2.49-4.17,3.85s-2.51,2.67-3.69,4a90.12,90.12,0,0,0-24.2-6.5L9.32,52.57A83.9,83.9,0,0,0,26.95,70.33a65.47,65.47,0,0,0-2.69,10.48v-.49A89.87,89.87,0,0,0,0,86.81v11a83.93,83.93,0,0,0,24.26,6.59v-.21a63.89,63.89,0,0,0,2.87,11,90.08,90.08,0,0,0-17.7,17.68l5.49,9.51A83.93,83.93,0,0,0,39.23,136l-.35-.6c1.21,1.41,2.48,2.8,3.83,4.15,1.67,1.67,3.4,3.19,5.16,4.64l-1.53-.89a90,90,0,0,0-6.52,24.25L49.32,173a84,84,0,0,0,17.83-17.72l-.41-.24a64.11,64.11,0,0,0,11.12,3,90.07,90.07,0,0,0,6.47,24.2h11A83.9,83.9,0,0,0,101.89,158,63.24,63.24,0,0,0,112,155.37a90.11,90.11,0,0,0,17.72,17.74ZM115.29,118a34.7,34.7,0,0,1-25.47,10.58A36.14,36.14,0,0,1,53.75,92.52,36.14,36.14,0,0,1,89.81,56.45a36.14,36.14,0,0,1,36.06,36.06A34.71,34.71,0,0,1,115.29,118ZM245.41,60.41a36.41,36.41,0,0,0,.46-5.87,90.82,90.82,0,0,0,19.27-14l-3.88-10.27a84.25,84.25,0,0,0-24,2.2,32.55,32.55,0,0,0-8.45-6.88,90.79,90.79,0,0,0-2.5-23.83L215.46,0a84.14,84.14,0,0,0-10.09,21.86A32.56,32.56,0,0,0,194.91,26a91,91,0,0,0-21.74-9.67l-6.95,8.5a84.15,84.15,0,0,0,13.89,19.66,34.59,34.59,0,0,0-1.7,10.94,90.82,90.82,0,0,0-19.27,14L163,79.67A84.3,84.3,0,0,0,187,77.49a32.38,32.38,0,0,0,8.66,7,90.69,90.69,0,0,0,2.5,23.63L209,109.85A84.18,84.18,0,0,0,219,88a32.54,32.54,0,0,0,10.19-4,90.78,90.78,0,0,0,21.88,9.75l6.95-8.5a84.12,84.12,0,0,0-13.91-19.68A35.61,35.61,0,0,0,245.41,60.41ZM224,56.92a12.06,12.06,0,1,1-18.93-11.73A12.05,12.05,0,0,1,224,56.92Zm4.52,111.2a90.61,90.61,0,0,0,12-21l-7.77-7.77a84.26,84.26,0,0,0-21.13,12,43.17,43.17,0,0,0-11.24-4.6,90.66,90.66,0,0,0-6.34-23.33h-11a84.18,84.18,0,0,0-6.45,23.36,43.3,43.3,0,0,0-11.33,4.7,90.91,90.91,0,0,0-20.87-11.94l-7.77,7.77a84.4,84.4,0,0,0,11.9,21A43.32,43.32,0,0,0,144,179.81a90.74,90.74,0,0,0-23,6.3v11a84.25,84.25,0,0,0,23.19,6.43,43.2,43.2,0,0,0,4.83,11.42A90.84,90.84,0,0,0,137,235.74l7.77,7.77a84.16,84.16,0,0,0,21.06-11.95,43.36,43.36,0,0,0,11.42,4.56,90.65,90.65,0,0,0,6.32,23.22h11A84,84,0,0,0,201,235.86a43.12,43.12,0,0,0,11.14-4.75,90.59,90.59,0,0,0,20.94,12l7.77-7.77a84.12,84.12,0,0,0-12-21.19A43.36,43.36,0,0,0,233.33,203a90.52,90.52,0,0,0,23.51-6.36v-11a83.91,83.91,0,0,0-23.64-6.5A43.3,43.3,0,0,0,228.56,168.12ZM205.11,208A23.4,23.4,0,1,1,212,191.36,22.58,22.58,0,0,1,205.11,208Z"/><path class="cls-5" d="M193.4,123.41a90.06,90.06,0,0,1,5.89,22.15c.35.09.69.2,1,.3a91.09,91.09,0,0,0-6.19-22.46Z"/><path class="cls-5" d="M136.8,45.52c-.2-.2-.41-.37-.61-.57,1,1.06,2.07,2.13,3,3.23l.05,0C138.47,47.27,137.67,46.38,136.8,45.52Z"/><path class="cls-5" d="M171.42,207.34a23.41,23.41,0,0,1,33.08-33.1c-.19-.21-.37-.42-.57-.62a23.43,23.43,0,1,0-33.13,33.15C171,207,171.21,207.15,171.42,207.34Z"/><path class="cls-5" d="M194.45,83.27A32,32,0,0,1,188,78.6a32.25,32.25,0,0,0,6.41,5.13C194.46,83.58,194.45,83.42,194.45,83.27Z"/><path class="cls-5" d="M129.73,173.11l9.5-5.49a83.89,83.89,0,0,0-6.43-24.31l-.38.22c1.49-1.27,3-2.6,4.37-4s2.5-2.65,3.68-4l0,.05a90.08,90.08,0,0,0,24.25,6.52l5.49-9.51a89,89,0,0,0-9-10.35,89.85,89.85,0,0,1,7.82,9.17l-5.49,9.51a90.08,90.08,0,0,1-24.25-6.52l0-.05c-1.18,1.36-2.37,2.7-3.68,4s-2.89,2.76-4.37,4l.38-.22a83.89,83.89,0,0,1,6.43,24.31l-9.5,5.49a100.64,100.64,0,0,1-9.15-8A99.19,99.19,0,0,0,129.73,173.11Z"/><path class="cls-5" d="M151.42,113.66c.42.31.82.67,1.24,1a65.4,65.4,0,0,0,2.7-10.42v.47a90,90,0,0,0,24.26-6.48v-11c-.39-.17-.79-.3-1.18-.46V97a90,90,0,0,1-24.26,6.48v-.47A65.45,65.45,0,0,1,151.42,113.66Z"/><path class="cls-5" d="M227.61,24.42c.4.23.79.49,1.18.73a91,91,0,0,0-2.49-23.38l-1-.16A90.3,90.3,0,0,1,227.61,24.42Z"/><path class="cls-5" d="M236.06,31.3h0c-.37-.38-.74-.76-1.12-1.12C235.35,30.54,235.72,30.9,236.06,31.3Z"/><path class="cls-5" d="M232.84,139.35h0l6.59,6.59a90.61,90.61,0,0,1-12,21A43.31,43.31,0,0,1,232,178c.29,0,.58.1.86.14a43.28,43.28,0,0,0-4.31-10,90.6,90.6,0,0,0,12-21Z"/><path class="cls-5" d="M25.71,69.35l.06-.19a78.74,78.74,0,0,1-8.62-7.4A79.55,79.55,0,0,0,25.71,69.35Z"/><path class="cls-5" d="M46.09,142.63l.6.34q-2.27-1.88-4.45-4c.16.17.31.35.47.51C43.81,140.61,44.95,141.63,46.09,142.63Z"/><path class="cls-5" d="M52.57,91.34a34.71,34.71,0,0,0,10.59,25.48c.2.2.41.37.62.56a34.63,34.63,0,0,1-10-24.87A36.14,36.14,0,0,1,89.81,56.45a34.62,34.62,0,0,1,24.86,10c-.2-.2-.36-.42-.57-.62A34.7,34.7,0,0,0,88.63,55.27,36.14,36.14,0,0,0,52.57,91.34Z"/><path class="cls-5" d="M186.94,77.49c-.38-.39-.77-.77-1.14-1.19a84.12,84.12,0,0,1-23.2,2.2l.44,1.17A84.3,84.3,0,0,0,186.94,77.49Z"/><path class="cls-5" d="M76.83,157.79c0-.32-.11-.64-.14-1a64.12,64.12,0,0,1-11.12-3l.41.24a84,84,0,0,1-17.83,17.72l-8.26-4.77c0,.15-.05.3-.07.46L49.32,173a84,84,0,0,0,17.83-17.72l-.41-.24A64.69,64.69,0,0,0,76.83,157.79Z"/><path class="cls-5" d="M110.84,154.19a63.24,63.24,0,0,1-10.13,2.63A83.9,83.9,0,0,1,94.13,181H83.88c.16.39.28.78.44,1.18h11A83.9,83.9,0,0,0,101.89,158a63.2,63.2,0,0,0,9.94-2.57C111.5,155,111.14,154.61,110.84,154.19Z"/><path class="cls-5" d="M176.1,234.94a43.36,43.36,0,0,1-11.42-4.56,84.16,84.16,0,0,1-21.06,11.95l1.18,1.18a84.16,84.16,0,0,0,21.06-11.95,43.31,43.31,0,0,0,10.39,4.27C176.2,235.53,176.14,235.23,176.1,234.94Z"/><path class="cls-5" d="M142.91,202.33a83.92,83.92,0,0,1-22-6v.71a84.42,84.42,0,0,0,22.32,6.29C143.13,203,143,202.68,142.91,202.33Z"/><path class="cls-5" d="M255.65,195.47a90.52,90.52,0,0,1-23.51,6.36A43.36,43.36,0,0,1,227.67,213a84.12,84.12,0,0,1,12,21.19l-7.77,7.77a90.6,90.6,0,0,1-20.94-12,43.12,43.12,0,0,1-11.14,4.75,84,84,0,0,1-6.47,23.47H183.15c.16.39.28.78.45,1.18h11A84,84,0,0,0,201,235.86a43.13,43.13,0,0,0,11.14-4.75,90.59,90.59,0,0,0,20.94,12l7.77-7.77a84.12,84.12,0,0,0-12-21.19A43.36,43.36,0,0,0,233.33,203a90.52,90.52,0,0,0,23.51-6.36v-11c-.39-.17-.79-.3-1.18-.46Z"/><path class="cls-5" d="M245.41,60.41a36.41,36.41,0,0,0,.46-5.87,90.82,90.82,0,0,0,19.27-14l-3.88-10.27h-.74l3.44,9.1a90.83,90.83,0,0,1-19.27,14,36.41,36.41,0,0,1-.46,5.87A35.61,35.61,0,0,1,243,64.4a84.12,84.12,0,0,1,13.91,19.68l-6.95,8.5A90.78,90.78,0,0,1,228,82.83a32.54,32.54,0,0,1-10.19,4,84.18,84.18,0,0,1-10.07,21.82l-9.86-1.61c.08.34.13.68.21,1L209,109.85A84.19,84.19,0,0,0,219,88a32.54,32.54,0,0,0,10.19-4,90.79,90.79,0,0,0,21.88,9.75l6.95-8.5a84.12,84.12,0,0,0-13.91-19.68A35.64,35.64,0,0,0,245.41,60.41Z"/><path class="cls-5" d="M23.08,103v.21A83.45,83.45,0,0,1,0,97.07v.72a84.25,84.25,0,0,0,23.35,6.45C23.27,103.81,23.15,103.41,23.08,103Z"/><path class="cls-5" d="M39,135.62c-.44-.48-.91-1-1.33-1.44l.35.6a83.76,83.76,0,0,1-23.85,6.36l.72,1.25A83.93,83.93,0,0,0,39.23,136Z"/><path class="cls-5" d="M168.9,51.31a90.3,90.3,0,0,1-17.53,17.55,64,64,0,0,1,2.81,10.84v-.22c.3,0,.61.1.91.14A64.63,64.63,0,0,0,152.54,70a90.29,90.29,0,0,0,17.53-17.55L164.59,43l-.46.07Z"/><path class="cls-5" d="M100.37,25.8c.35.06.68.16,1,.22A90.55,90.55,0,0,0,95.08,2.81h-.73A89.3,89.3,0,0,1,100.37,25.8Z"/><path class="cls-5" d="M131.89,40.81l-.11-.06c.44.38.86.82,1.3,1.21a90.08,90.08,0,0,0,6.51-24.22L138.34,17A89.81,89.81,0,0,1,131.89,40.81Z"/><path class="cls-5" d="M66.42,28.46l.19-.06A82.8,82.8,0,0,0,59,19.88,81.19,81.19,0,0,1,66.42,28.46Z"/><path class="cls-5" d="M203.25,63a12.85,12.85,0,0,1-.88-1,12,12,0,0,1,2.75-16.82,12,12,0,0,1,14.76.55,12,12,0,0,0-20.81,6.11,11.62,11.62,0,0,0,2.12,9A12.44,12.44,0,0,0,203.25,63Z"/><path class="cls-6" d="M195.63,84.91a90.89,90.89,0,0,0,2.49,23.17l1,.16a90.23,90.23,0,0,1-2.29-22.61C196.41,85.41,196,85.15,195.63,84.91Z"/><path class="cls-6" d="M238.42,33.65a84.05,84.05,0,0,1,23.27-2.21l-.44-1.17a84.25,84.25,0,0,0-24,2.2C237.67,32.86,238.05,33.24,238.42,33.65Z"/><path class="cls-6" d="M206.29,209.13a23.4,23.4,0,0,0,0-33.15c-.2-.2-.41-.37-.61-.55a23.41,23.41,0,0,1-33.09,33.09c.19.2.36.41.56.61a23.42,23.42,0,0,0,33.13,0Z"/><path class="cls-6" d="M178.88,49.54a36.47,36.47,0,0,0-.46,5.87,90.82,90.82,0,0,0-19.27,14L163,79.67h.74l-3.44-9.1a90.83,90.83,0,0,1,19.27-14,34.59,34.59,0,0,1,1.7-10.94A84.15,84.15,0,0,1,167.4,26l6.95-8.5a91,91,0,0,1,21.74,9.67A32.55,32.55,0,0,1,206.55,23,84.13,84.13,0,0,1,216.64,1.18l9.86,1.61c-.08-.34-.13-.68-.21-1L215.46,0a84.14,84.14,0,0,0-10.09,21.86A32.56,32.56,0,0,0,194.91,26a91,91,0,0,0-21.74-9.67l-6.95,8.5a84.15,84.15,0,0,0,13.89,19.66A36.52,36.52,0,0,0,178.88,49.54Z"/><path class="cls-6" d="M230,26.78a32,32,0,0,1,6.2,4.57,32.42,32.42,0,0,0-6.2-5C230,26.48,230,26.63,230,26.78Z"/><path class="cls-6" d="M221,46.92a12.83,12.83,0,0,1,.88,1,12,12,0,0,1-2.75,16.82,12,12,0,0,1-14.75-.55,11.51,11.51,0,0,0,7,3.85,12.06,12.06,0,0,0,11.72-18.94A12.41,12.41,0,0,0,221,46.92Z"/><path class="cls-6" d="M189.23,79.78c-.36-.37-.73-.73-1.08-1.12h0C188.48,79,188.85,79.43,189.23,79.78Z"/><path class="cls-6" d="M156.53,82.05v-.22A83.48,83.48,0,0,1,179.62,88v-.72a84.28,84.28,0,0,0-23.35-6.45C156.34,81.21,156.46,81.62,156.53,82.05Z"/><path class="cls-6" d="M127.06,93.7a34.7,34.7,0,0,0-10.59-25.48c-.2-.2-.41-.37-.61-.56a34.62,34.62,0,0,1,10,24.86,36.14,36.14,0,0,1-36.06,36.06,34.61,34.61,0,0,1-24.86-10c.19.2.36.42.56.62A34.69,34.69,0,0,0,91,129.76,36.14,36.14,0,0,0,127.06,93.7Z"/><path class="cls-6" d="M234.37,180.35a83.51,83.51,0,0,1,22.46,6v-.72a84.16,84.16,0,0,0-22.78-6.36C234.16,179.65,234.28,180,234.37,180.35Z"/><path class="cls-6" d="M134.14,43.1c1.1,1,2.17,2,3.23,3-.2-.2-.37-.41-.57-.61-.83-.84-1.69-1.6-2.55-2.38v0Z"/><path class="cls-6" d="M212.89,152.52a84.26,84.26,0,0,1,21.13-12l6.59,6.59h0l-7.77-7.77a84.26,84.26,0,0,0-21.13,12,43.13,43.13,0,0,0-10.2-4.3c0,.29.11.59.14.88A43.17,43.17,0,0,1,212.89,152.52Z"/><path class="cls-6" d="M153.84,115.83l-.06.19a78.88,78.88,0,0,1,8.59,7.39A79.65,79.65,0,0,0,153.84,115.83Z"/><path class="cls-6" d="M122.08,187.28a90.74,90.74,0,0,1,23-6.3,43.32,43.32,0,0,1,4.68-11.52,84.4,84.4,0,0,1-11.9-21l7.77-7.77a90.91,90.91,0,0,1,20.87,11.94,43.3,43.3,0,0,1,11.33-4.7,84.18,84.18,0,0,1,6.45-23.36h10.25c-.16-.39-.28-.78-.44-1.18h-11a84.19,84.19,0,0,0-6.45,23.36,43.3,43.3,0,0,0-11.33,4.7,90.91,90.91,0,0,0-20.87-11.94l-7.77,7.77a84.4,84.4,0,0,0,11.9,21A43.32,43.32,0,0,0,144,179.81a90.74,90.74,0,0,0-23,6.3v11c.39.17.79.3,1.18.46Z"/><path class="cls-6" d="M113.19,156.55l-.19.06a82.83,82.83,0,0,0,7.58,8.54A81.21,81.21,0,0,1,113.19,156.55Z"/><path class="cls-6" d="M79,159.2c-.35-.06-.68-.16-1-.23a90.64,90.64,0,0,0,6.32,23.25h.73A89.35,89.35,0,0,1,79,159.2Z"/><path class="cls-6" d="M47.51,144.44l1.53.89c-.6-.49-1.18-1-1.77-1.52l-.94-.54a90,90,0,0,0-6.52,24.25l1.25.72A89.73,89.73,0,0,1,47.51,144.44Z"/><path class="cls-6" d="M178.46,237.29c-.35-.08-.69-.2-1-.29a91.06,91.06,0,0,0,6.18,22.33h.73A90.07,90.07,0,0,1,178.46,237.29Z"/><path class="cls-6" d="M10.61,134.06a90.09,90.09,0,0,1,17.7-17.68,63.9,63.9,0,0,1-2.87-11v.21c-.3,0-.61-.1-.91-.14a64.5,64.5,0,0,0,2.6,9.78,90.08,90.08,0,0,0-17.7,17.68l5.49,9.51.46-.07Z"/><path class="cls-6" d="M138.21,236.92a90.84,90.84,0,0,1,11.89-20.81,43.2,43.2,0,0,1-4.83-11.42c-.29,0-.58-.1-.87-.14a43.26,43.26,0,0,0,4.52,10.38A90.84,90.84,0,0,0,137,235.74Z"/><path class="cls-6" d="M102.72,28.16A63.58,63.58,0,0,1,113.55,31a83.92,83.92,0,0,1,17.71-17.56l8.25,4.77c0-.15.05-.3.07-.45l-9.51-5.49a83.93,83.93,0,0,0-17.71,17.56,64.1,64.1,0,0,0-9.79-2.6C102.62,27.52,102.69,27.84,102.72,28.16Z"/><path class="cls-6" d="M141.58,50.54a83.66,83.66,0,0,1,23.73-6.31L164.59,43a83.84,83.84,0,0,0-24.14,6.36C140.82,49.74,141.22,50.13,141.58,50.54Z"/><path class="cls-6" d="M1.18,88a89.86,89.86,0,0,1,24.26-6.48V82a65.48,65.48,0,0,1,2.69-10.48c-.42-.31-.82-.67-1.24-1a65.46,65.46,0,0,0-2.63,10.29v-.49A89.87,89.87,0,0,0,0,86.81v11c.39.17.79.3,1.18.46Z"/><path class="cls-6" d="M68.77,30.82a64.19,64.19,0,0,1,9.92-2.58A84,84,0,0,1,85.28,4H95.52c-.16-.39-.28-.78-.44-1.18h-11a84,84,0,0,0-6.58,24.25,64.15,64.15,0,0,0-9.73,2.52C68.1,30,68.46,30.4,68.77,30.82Z"/><path class="cls-6" d="M43.42,140.17c-1.17-1.19-2.3-2.4-3.36-3.64l.15.27c.82.91,1.62,1.83,2.5,2.71C42.94,139.74,43.18,139.95,43.42,140.17Z"/><path class="cls-6" d="M18.33,62.93a90.11,90.11,0,0,1-7.83-9.18L16,44.24a90.11,90.11,0,0,1,24.2,6.5c1.18-1.37,2.38-2.73,3.69-4s2.75-2.63,4.17-3.85l-.06,0a83.84,83.84,0,0,1-6.43-24.31l9.51-5.49a100.68,100.68,0,0,1,9.14,8,99.22,99.22,0,0,0-10.32-9.14L40.38,17.4a83.84,83.84,0,0,0,6.43,24.31l.06,0c-1.42,1.22-2.81,2.49-4.17,3.85s-2.51,2.67-3.69,4a90.12,90.12,0,0,0-24.2-6.5L9.32,52.57A89.2,89.2,0,0,0,18.33,62.93Z"/></g></g></svg>