<svg xmlns="http://www.w3.org/2000/svg" viewBox="0 0 113.28 154.75"><defs><style>.cls-1{fill:#fff;stroke:#e55100;stroke-linecap:round;stroke-linejoin:round;stroke-width:5.75px;opacity:0.99;isolation:isolate;}</style></defs><title>hint_hand</title><g id="Layer_2" data-name="Layer 2"><g id="hand_hint" data-name="hand hint"><path id="hand" class="cls-1" d="M35.43,151.88c.26-8.42-2.18-12.74-2.21-12.92-16.7-8.32-8-49.32-29.06-60.87h0c-3.28-5.44,0-12.15,6.78-12.15s10.37,4,12.55,6c5.28,4.83,5.12,8.16,9.74,14.18V74.63l0-60.44c0-6.27,4.41-11.32,9.9-11.32s9.9,5,9.9,11.32v34c0-6.27,4.41-11.32,9.9-11.32s9.9,5,9.9,11.32v5.43c0-6.27,4.41-11.32,9.9-11.32s9.9,5,9.9,11.32v9.52c0-6.27,3.87-11.32,8.69-11.32s8.69,5,8.69,11.32c1.43,23.63-1.31,53.15-4.51,67-.17,2.61-2,6-2.07,8.78-.23,6.22-1.73,9.42-1.73,12.92Z"/></g></g></svg>