<svg xmlns="http://www.w3.org/2000/svg" viewBox="0 0 536.74 584.86"><defs><style>.cls-1{fill:#5483bd;}.cls-2{fill:none;stroke:#ffee8f;stroke-miterlimit:10;stroke-width:4.56px;}.cls-3{fill:#ffee8f;}</style></defs><title>4_circular_graphic</title><g id="Layer_2" data-name="Layer 2"><g id="Layer_1-2" data-name="Layer 1"><path class="cls-1" d="M88.21,465.12l11.42,38.4,7.3-6.81a204.41,204.41,0,0,0,87,43.87l3.58-15.5a189,189,0,0,1-78.89-39.3l7.08-6.6Z"/><path class="cls-1" d="M448.53,121.48l-11.42-38.4-7.3,6.81a204.41,204.41,0,0,0-87-43.87l-3.58,15.5a189,189,0,0,1,78.89,39.3l-7.08,6.6Z"/><path class="cls-1" d="M327.49,535.29l39,9.2-2.28-9.73a204.41,204.41,0,0,0,81.36-53.64L433.9,470.3a189,189,0,0,1-73.35,48.87l-2.2-9.42Z"/><path class="cls-1" d="M209.26,51.31l-39-9.2,2.28,9.73a204.41,204.41,0,0,0-81.36,53.64l11.66,10.82a189,189,0,0,1,73.35-48.87l2.2,9.42Z"/><path class="cls-1" d="M509.47,361.67l27.27-29.35-9.58-2.83a204.41,204.41,0,0,0-6.41-97.24L505.59,237A189,189,0,0,1,511.8,325l-9.28-2.74Z"/><path class="cls-1" d="M27.27,224.93,0,254.28l9.58,2.83A204.41,204.41,0,0,0,16,354.34l15.17-4.79a189,189,0,0,1-6.22-87.91l9.28,2.74Z"/><circle class="cls-2" cx="274.36" cy="47.23" r="44.95"/><path class="cls-3" d="M262.14,60.3h9.51v-28h-7.83V27.5A28.62,28.62,0,0,0,273.66,24h5.76V60.3h8.37v6.29H262.14Z"/><circle class="cls-2" cx="484.11" cy="175.15" r="44.95"/><path class="cls-3" d="M471.32,190c11.85-11.45,19.28-18.94,19.28-25.44,0-4.48-2.48-7.36-7-7.36-3.28,0-6,2.21-8.3,4.75L471,157.64c3.88-4.15,7.76-6.56,13.59-6.56,8.17,0,13.45,5.15,13.45,13.05,0,7.56-7,15.33-15.46,24.23,2.21-.2,5-.47,7.09-.47H500.1v6.56H471.32Z"/><circle class="cls-2" cx="480.65" cy="419.47" r="44.95"/><path class="cls-3" d="M470.09,431.55a13.91,13.91,0,0,0,10.11,4.69c4.62,0,7.83-2.41,7.83-6.43,0-4.42-2.81-7.23-12.52-7.23V417c8.37,0,11.11-2.88,11.11-6.83,0-3.55-2.41-5.69-6.29-5.69-3.35,0-6,1.61-8.57,4l-3.95-4.75c3.61-3.21,7.7-5.35,12.79-5.35,8.17,0,13.79,4,13.79,11.25,0,4.75-2.81,8-7.43,9.77v.27c5,1.34,8.84,5,8.84,10.58,0,7.76-6.76,12.32-14.93,12.32-6.89,0-11.45-2.68-14.46-6Z"/><circle class="cls-2" cx="263.99" cy="537.63" r="44.95"/><path class="cls-3" d="M278.54,547.69h-5.35v11H266v-11H247.14v-5.22L264,516.1h9.17v25.64h5.35Zm-12.58-6v-9.64c0-2.48.2-6.36.33-8.84H266c-1.07,2.21-2.28,4.35-3.48,6.63l-7.76,11.85Z"/><circle class="cls-2" cx="53.69" cy="411.25" r="44.95"/><path class="cls-3" d="M42.4,422.61c2.54,2.41,5.69,4.55,10,4.55,4.75,0,8.23-3,8.23-8.17s-3.15-8-7.83-8c-2.74,0-4.28.74-6.83,2.41l-3.68-2.34,1.27-21H66.3v6.49H50.23l-.87,10.31A12.05,12.05,0,0,1,55,405.47c7.3,0,13.39,4.15,13.39,13.32s-7.16,14.66-15,14.66a19.54,19.54,0,0,1-14.53-5.89Z"/><circle class="cls-2" cx="54.39" cy="164.71" r="44.95"/><path class="cls-3" d="M62.86,151.27a9.19,9.19,0,0,0-6.76-3.21c-5.35,0-9.71,3.95-10,15.73,2.48-3.15,6.16-5,9.24-5,7.36,0,12.45,4.28,12.45,13.19,0,8.5-6.09,14-13.39,14-8.37,0-15.46-6.49-15.46-20.82,0-16.53,8-23.36,16.74-23.36A15.17,15.17,0,0,1,67,146.59ZM60.58,172c0-5-2.48-7.56-6.69-7.56-2.41,0-5.22,1.34-7.63,4.89.8,7.56,3.82,10.78,8,10.78C57.77,180.05,60.58,177.18,60.58,172Z"/></g></g></svg>