<svg xmlns="http://www.w3.org/2000/svg" xmlns:xlink="http://www.w3.org/1999/xlink" viewBox="0 0 944.95 944.95"><defs><style>.cls-1{fill:url(#radial-gradient);}.cls-2{fill:#f4a300;}.cls-3{fill:#7391ff;}.cls-4{fill:#69bcff;}.cls-5{fill:#b7d313;}.cls-6{fill:#21dbc0;}.cls-7{fill:#e1f9ff;}.cls-8{fill:#e6fcff;}.cls-9{fill:#dcffff;}.cls-10{fill:#feffca;}.cls-11{fill:#fff5dc;}</style><radialGradient id="radial-gradient" cx="472.48" cy="469.48" r="465.72" gradientUnits="userSpaceOnUse"><stop offset="0.79" stop-color="#fff"/><stop offset="1" stop-color="#fff" stop-opacity="0"/></radialGradient></defs><title>image10</title><g id="Layer_2" data-name="Layer 2"><g id="Layer_9_copy" data-name="Layer 9 copy"><g id="Layer_12" data-name="Layer 12"><circle class="cls-1" cx="472.48" cy="472.48" r="472.48"/><path class="cls-2" d="M418.91,488.08,255.33,713.23C155.85,641,116.23,519,154.23,402.08Z"/><path class="cls-3" d="M475.92,539.56,639.5,764.71C540,837,411.81,837,312.33,764.71Z"/><path class="cls-4" d="M525.26,484.72l264.68-86c38,116.94-1.62,238.88-101.1,311.15Z"/><path class="cls-5" d="M439.65,423.09,175,337.09c38-116.94,141.72-192.3,264.68-192.3Z"/><path class="cls-6" d="M507.17,423.09V144.79c123,0,226.68,75.36,264.68,192.3Z"/><path class="cls-7" d="M640.08,321.35c-16.58,24.14-47.63,32.21-69,17.87s-25.34-45.77-8.76-69.91,53.38-28.36,87.22-44.37C646.89,261.86,656.83,297,640.08,321.35Zm-.17-87.2c-30.8,16.4-60.37,24.88-70.17,42.59-7.84,13.36-2.11,21.5,2.16,11.76C581.88,265.81,613.61,252.18,639.91,234.15Z"/><path class="cls-8" d="M473.95,763.68c0,2.14,0,4.28,0,6.43a2.22,2.22,0,0,0,.63,1.7c1.35,1.39,2.69,2.79,4,4.23.52.58.88.54,1.38,0,1.22-1.36,2.46-2.7,3.75-4a2.8,2.8,0,0,0,.84-2.21c0-4.16,0-8.33,0-12.49,0-1.26.12-1.33,1.22-.78,2.84,1.41,5.68,2.81,8.51,4.24a1.68,1.68,0,0,0,1.71.11c1.28-.69,2.56-1.36,3.86-2a1.13,1.13,0,0,0,.7-1.49,27,27,0,0,1-.62-3.38,2.77,2.77,0,0,0-1.67-2.3c-4.21-2.25-8.38-4.6-12.57-6.9a1.9,1.9,0,0,1-1.18-1.92c.07-2.81,0-5.63,0-8.45,0-1.36.1-1.43,1.27-.94,3.1,1.28,6.21,2.53,9.28,3.87.86.37,1.16.26,1.17-.71q0-4.16.12-8.32c0-1.17.19-1.27,1.21-.79l7.76,3.68c2.85,1.34,2.79,1.32,2.38,4.64-.48,3.85-.82,7.71-1.26,11.57a1.79,1.79,0,0,0,.92,2c1.31.8,2.57,1.67,3.83,2.55a1,1,0,0,0,1.33,0c1-.72,2.11-1.4,3.21-2a1.88,1.88,0,0,0,1-1.9c-.1-2.85-.15-5.71-.2-8.56,0-1.64.11-1.73,1.48-1,4.68,2.52,9.36,5,14,7.59a1.82,1.82,0,0,0,2,0q2.17-1.29,4.41-2.46a1.11,1.11,0,0,0,.6-1.53,29.93,29.93,0,0,1-.94-3.67,2.94,2.94,0,0,0-1.92-2.37c-4.6-2.14-9.16-4.36-13.74-6.55-.3-.14-.76-.2-.74-.62s.48-.45.77-.6c2.83-1.43,5.65-2.87,8.5-4.26a1.57,1.57,0,0,0,1-1.65,20.9,20.9,0,0,1,.11-3,1.31,1.31,0,0,0-.68-1.46c-1.09-.64-2.19-1.27-3.24-2a1.49,1.49,0,0,0-1.86,0c-4.27,2.71-8.59,5.34-12.86,8.05a1.6,1.6,0,0,1-2,0c-3.22-2-6.47-4-9.7-5.95-1-.64-1-.78,0-1.47,2.21-1.46,4.41-2.93,6.63-4.37.76-.49.88-.83,0-1.4-2.25-1.54-4.46-3.15-6.68-4.73-1.07-.76-1.07-.83.08-1.54,3.13-1.93,6.29-3.82,9.38-5.81a2,2,0,0,1,2.46,0c3.68,2.36,7.46,4.55,11.06,7,1.77,1.22,3.07,1.11,4.87,0s2.85-2.25,2.34-4.51a3.94,3.94,0,0,1,0-1.19,1.42,1.42,0,0,0-.95-1.55c-2.81-1.37-5.61-2.78-8.41-4.18-.33-.16-.86-.23-.89-.64s.56-.57.9-.74q7-3.39,14-6.73c.53-.25,1-.5,1.17-1.17.37-1.54.76-3.07,1.21-4.58a1.1,1.1,0,0,0-.61-1.52c-1.49-.77-3-1.57-4.42-2.43a2,2,0,0,0-2.23,0c-4.66,2.55-9.35,5.05-14,7.56-.38.2-.76.72-1.21.37s-.24-.89-.2-1.35c.27-2.89.07-5.79.17-8.68a1.65,1.65,0,0,0-.83-1.66c-1.15-.69-2.28-1.42-3.38-2.18a1.11,1.11,0,0,0-1.44,0c-1.26.88-2.54,1.73-3.84,2.54a1.69,1.69,0,0,0-.81,1.88c.53,4.6,1,9.21,1.52,13.81a1.33,1.33,0,0,1-.86,1.57c-3.14,1.47-6.27,3-9.4,4.49-1.15.55-1.31.46-1.34-.84,0-2.7-.09-5.39-.07-8.09,0-1.05-.21-1.34-1.21-.9-3.11,1.35-6.25,2.63-9.38,3.92-1.11.46-1.2.39-1.21-.9,0-2.74,0-5.47,0-8.21a2.23,2.23,0,0,1,1.35-2.31c4.28-2.29,8.51-4.68,12.77-7a2,2,0,0,0,1.22-1.43c.23-1.37.5-2.72.77-4.08a1.23,1.23,0,0,0-.75-1.52c-1.24-.59-2.48-1.19-3.68-1.85a1.78,1.78,0,0,0-1.82,0c-2.79,1.41-5.6,2.79-8.41,4.18-1.26.63-1.38.55-1.39-1,0-4.12,0-8.25,0-12.38a2.7,2.7,0,0,0-.79-2.12c-1.26-1.25-2.48-2.56-3.67-3.9-.58-.66-1-.63-1.57,0-1.16,1.3-2.34,2.59-3.59,3.81a3.11,3.11,0,0,0-.89,2.44c0,4.16,0,8.33,0,12.49,0,1.06-.35,1.12-1.14.71-1.93-1-4-1.82-5.81-3-2.5-1.57-4.85-2-7.28,0a3.17,3.17,0,0,1-.92.46,1.31,1.31,0,0,0-.83,1.7c.23,1.2.48,2.4.66,3.62a2.14,2.14,0,0,0,1.19,1.72c4.37,2.37,8.71,4.8,13.07,7.17a1.93,1.93,0,0,1,1.14,2c-.05,2.82,0,5.63,0,8.45,0,1.33-.11,1.4-1.3.9-3.17-1.31-6.34-2.61-9.49-4-.81-.35-1-.09-1,.72q0,4.22-.18,8.44c0,1-.28,1.17-1.14.75-3.05-1.49-6.11-3-9.2-4.36a1.7,1.7,0,0,1-1.16-2.06c.48-3.93.78-7.88,1.36-11.79.31-2.09.07-3.62-2-4.42a2.11,2.11,0,0,1-.66-.46c-1.68-1.61-3.36-1.85-5.12-.11a5,5,0,0,1-1.27.78,2,2,0,0,0-1.13,2.09c.08,2.85.05,5.71.07,8.57,0,1.61,0,1.62-1.36.89l-14.23-7.68a1.33,1.33,0,0,0-1.47-.15c-1.62.94-3.27,1.83-4.93,2.71a1.15,1.15,0,0,0-.62,1.55c.41,1.4.8,2.81,1.12,4.24a1.93,1.93,0,0,0,1.19,1.44q7.18,3.41,14.34,6.89c.29.14.75.18.71.64s-.43.39-.7.52l-8.61,4.28c-1.05.53-1.59,5.13-.69,5.91a4.51,4.51,0,0,0,.68.43c.92.55,1.89,1,2.76,1.66a1.57,1.57,0,0,0,2,0c4.24-2.69,8.51-5.32,12.77-8a1.42,1.42,0,0,1,1.76-.16c3.33,2.12,6.7,4.18,10.07,6.23.81.49.65.77,0,1.18-2.43,1.46-4.84,3-7.26,4.42-1,.63-1.06.67-.06,1.35,2.44,1.67,4.88,3.34,7.34,5,.75.5.88.84,0,1.38q-4.92,3-9.79,6a1.62,1.62,0,0,1-2,0c-4-2.56-8.07-5-12.05-7.62-1.22-.8-2.05-.59-3.35-.06-2.87,1.19-3.58,3.2-3.13,6.12a1.73,1.73,0,0,0,1,1.54c2.78,1.36,5.53,2.76,8.3,4.15.37.18.94.25,1,.7s-.56.56-.91.73q-7,3.36-13.93,6.7c-.55.27-1.1.5-1.27,1.23-.38,1.57-.78,3.15-1.23,4.7a1,1,0,0,0,.56,1.32c1.48.8,3,1.6,4.39,2.48a2.15,2.15,0,0,0,2.43,0c4.72-2.6,9.47-5.15,14.22-7.71,1.09-.58,1.2-.5,1.17.8q-.08,4.52-.21,9a1.47,1.47,0,0,0,.67,1.5c1.18.71,2.34,1.46,3.49,2.22a1.24,1.24,0,0,0,1.57,0c1.29-.9,2.61-1.76,3.94-2.6a1.32,1.32,0,0,0,.69-1.44c-.53-4.72-1-9.45-1.52-14.17a1.23,1.23,0,0,1,.76-1.49c3.21-1.51,6.42-3,9.61-4.58.93-.45,1.21-.16,1.21.84,0,2.66,0,5.31.16,8,.09,1.4.1,1.44,1.38.91,3-1.25,6.06-2.49,9.07-3.78.91-.39,1.22-.18,1.2.85,0,2.7-.1,5.4,0,8.09a2.52,2.52,0,0,1-1.56,2.66c-3.88,2.07-7.7,4.26-11.59,6.29-1.4.73-2.35,1.58-2.41,3.34a11.8,11.8,0,0,1-.49,2.68,1.13,1.13,0,0,0,.71,1.5c1.23.61,2.46,1.23,3.66,1.9a1.73,1.73,0,0,0,1.81,0c2.79-1.42,5.6-2.8,8.4-4.19,1.33-.66,1.4-.61,1.4.88C473.95,759.56,473.94,761.62,473.95,763.68Zm5.44-39.74c-2.12,0-4.24,0-6.36,0a1.88,1.88,0,0,1-1.86-1q-3.29-5.63-6.65-11.21a1.68,1.68,0,0,1,0-2Q468,704,471.4,698.27a1.11,1.11,0,0,1,1.08-.68c4.16.24,8.32-.12,12.48-.11a2.89,2.89,0,0,1,2.92,1.65c1.93,3.46,4,6.82,6.07,10.19a2.27,2.27,0,0,1,0,2.78c-2.2,3.51-4.29,7.1-6.36,10.7a2.07,2.07,0,0,1-2.12,1.18C483.47,723.89,481.43,723.94,479.38,723.94Z"/><path class="cls-9" d="M660.55,600.88c6.9,2.52,14.69-.52,17.3-6.79a8.94,8.94,0,0,0,.47-1.84,22.74,22.74,0,0,0,24.74-13.56l.1,0c23.56,6.51,49.4-8.38,54.78-33.28,4.45-20.56-6-41-23.18-49.16.52-15.24-11.43-27.4-25.55-27.75-12.71-.32-23.24,8.69-25.69,21.56-6,31-11.57,46.09-23.12,76.14-.06.23-.1.46-.15.68-2.77,7.69-5.39,15.85-6.76,18.67C650.57,591.54,653.65,598.36,660.55,600.88Z"/><path class="cls-10" d="M302.78,216.31c12.15,19.28-.91,67.94,4.66,89.85,4.62,29.51,35.34,46.58,59.7,49.29-23.67-23.92-37-51.6-32.7-78.41,3.07,11,4.92,21.9,9.22,31.73a128.29,128.29,0,0,0,17.44,29c.45.57,1,1.11,1.43,1.66v0s17.58,22.66,34.38,33.06l3.65-11.41s-8.92-1.54-20.62-11.43a56.5,56.5,0,0,1-2.66-33.76c3.56-19,4.19-31.11,3.28-41.72C380.1,236.32,352.73,216.26,302.78,216.31Z"/><path class="cls-11" d="M274.44,512.87h0l-38.71-31a0,0,0,0,1,0-.06l21.72-1.34s28.61,9,28.61,9l15.29,19.95s.08.94.05.94ZM253.7,617.48a0,0,0,0,0,.05,0l22.12-20.57a0,0,0,0,0,0,0L262.61,565.3l5.61-46a0,0,0,0,0,0,0L227.68,485.1S205.18,494,205.17,494l-1.27,18.39L188.24,526.7,201,573.11,218.3,579,228,603.25l0,0Zm28.83-26.21,23-16.24s-4.9-17.8-4.9-17.8l2-37.78a0,0,0,0,0-.05,0l-25,2.16a0,0,0,0,0,0,.05l-6.24,42.14Z"/></g></g></g></svg>