<svg xmlns="http://www.w3.org/2000/svg" viewBox="0 0 1931.46 1864.38"><defs><style>.cls-1{fill:#21dbc0;}.cls-2{fill:#69bcff;}.cls-3{fill:#7391ff;}.cls-4{fill:#f4a300;}.cls-5{fill:#b7d313;}.cls-6{fill:#e1f9ff;}.cls-7{fill:#e6fcff;}.cls-8{fill:#dcffff;}.cls-9{fill:#feffca;}.cls-10{fill:#fff5dc;}.cls-11{fill:#f9d730;}.cls-12{fill:#8fccff;}.cls-13{fill:#249de0;}.cls-14{fill:#cea600;}</style></defs><title>images_8_and_23</title><g id="Layer_2" data-name="Layer 2"><g id="Layer_2-2" data-name="Layer 2"><g id="Layer_4" data-name="Layer 4"><circle class="cls-1" cx="1435.3" cy="202.8" r="202.78" transform="translate(429.44 1246.57) rotate(-54.1)"/><circle class="cls-2" cx="1728.66" cy="1104.04" r="202.78" transform="translate(-179.27 1857.01) rotate(-54.1)"/><circle class="cls-3" cx="962.13" cy="1661.58" r="202.78" transform="translate(-947.99 1466.7) rotate(-54.1)"/><circle class="cls-4" cx="202.8" cy="1110.72" r="202.78" transform="translate(-815.86 623.73) rotate(-54.1)"/><circle class="cls-5" cx="493.55" cy="207.57" r="202.78" transform="matrix(0.59, -0.81, 0.81, 0.59, 36.02, 485.67)"/></g><path class="cls-6" d="M1513.25,208.61c.89,46.9-32.05,86.33-73.29,87.59s-75.64-36-76.53-82.93,43.13-86.67,72.31-139C1466.7,124.77,1512.35,161.23,1513.25,208.61ZM1431.8,95.16c-24.86,50.06-55.48,88.65-51.76,120.85,2.23,24.71,17.28,30,13.77,13.31C1385.68,190.47,1414.33,143.15,1431.8,95.16Z"/><path class="cls-7" d="M973.06,1580c0-3.43,0-6.86,0-10.29a3.56,3.56,0,0,0-1-2.73c-2.16-2.22-4.31-4.47-6.39-6.77-.84-.92-1.41-.86-2.21,0-2,2.17-3.93,4.32-6,6.37a4.48,4.48,0,0,0-1.35,3.53c0,6.67,0,13.34,0,20,0,2-.2,2.13-2,1.25-4.55-2.25-9.1-4.49-13.62-6.8a2.69,2.69,0,0,0-2.74-.17c-2,1.11-4.1,2.19-6.18,3.22a1.8,1.8,0,0,0-1.12,2.39,43.21,43.21,0,0,1,1,5.42,4.44,4.44,0,0,0,2.68,3.68c6.75,3.61,13.42,7.37,20.13,11a3,3,0,0,1,1.89,3.08c-.11,4.51,0,9,0,13.53,0,2.17-.16,2.28-2,1.51-5-2-9.94-4.05-14.86-6.2-1.37-.6-1.85-.41-1.87,1.14q-.07,6.67-.19,13.33c0,1.87-.31,2-1.93,1.27-4.14-2-8.28-3.94-12.42-5.89-4.56-2.14-4.47-2.12-3.81-7.42.76-6.16,1.32-12.36,2-18.53a2.86,2.86,0,0,0-1.48-3.13c-2.09-1.28-4.12-2.67-6.14-4.08a1.61,1.61,0,0,0-2.13,0c-1.67,1.15-3.38,2.24-5.14,3.24a3,3,0,0,0-1.67,3.05c.17,4.57.24,9.14.33,13.71,0,2.62-.18,2.77-2.37,1.59-7.49-4-15-8.07-22.45-12.15a2.92,2.92,0,0,0-3.22,0q-3.48,2.06-7.06,3.94a1.78,1.78,0,0,0-1,2.46,47.94,47.94,0,0,1,1.51,5.88,4.71,4.71,0,0,0,3.07,3.8c7.36,3.43,14.68,7,22,10.5.48.23,1.22.32,1.18,1s-.77.72-1.24,1c-4.53,2.29-9.05,4.6-13.61,6.83a2.51,2.51,0,0,0-1.6,2.64,33.47,33.47,0,0,1-.18,4.75,2.1,2.1,0,0,0,1.09,2.34c1.75,1,3.5,2,5.19,3.15a2.38,2.38,0,0,0,3,0c6.85-4.34,13.76-8.56,20.6-12.89a2.56,2.56,0,0,1,3.14,0c5.15,3.22,10.36,6.35,15.53,9.53,1.67,1,1.66,1.24,0,2.36-3.54,2.34-7.06,4.7-10.62,7-1.21.78-1.41,1.33-.07,2.25,3.6,2.47,7.14,5,10.7,7.58,1.71,1.22,1.71,1.33-.13,2.47-5,3.1-10.07,6.12-15,9.31a3.17,3.17,0,0,1-3.95-.08c-5.89-3.78-11.95-7.29-17.71-11.27-2.84-2-4.92-1.77-7.8-.05s-4.56,3.6-3.75,7.22a6.31,6.31,0,0,1,0,1.9,2.28,2.28,0,0,0,1.52,2.48c4.51,2.19,9,4.44,13.47,6.7.52.26,1.38.37,1.42,1,.06.85-.9.92-1.45,1.18q-11.22,5.43-22.48,10.78c-.85.4-1.61.79-1.87,1.88-.6,2.46-1.22,4.92-1.93,7.34a1.77,1.77,0,0,0,1,2.44c2.39,1.24,4.76,2.52,7.08,3.89a3.23,3.23,0,0,0,3.57,0c7.47-4.08,15-8.09,22.47-12.11.61-.33,1.21-1.16,1.94-.59s.39,1.43.32,2.16c-.43,4.63-.12,9.27-.28,13.9a2.64,2.64,0,0,0,1.33,2.66c1.84,1.11,3.64,2.28,5.42,3.5a1.77,1.77,0,0,0,2.31-.06c2-1.41,4.06-2.78,6.15-4.07a2.7,2.7,0,0,0,1.29-3c-.85-7.37-1.6-14.75-2.43-22.12a2.13,2.13,0,0,1,1.38-2.51c5-2.35,10-4.79,15.05-7.19,1.84-.88,2.1-.73,2.14,1.35.07,4.32.15,8.64.11,13,0,1.69.33,2.14,1.94,1.44,5-2.16,10-4.2,15-6.28,1.77-.73,1.93-.63,1.94,1.44,0,4.38-.06,8.77,0,13.15a3.57,3.57,0,0,1-2.15,3.7c-6.85,3.68-13.63,7.49-20.45,11.24a3.14,3.14,0,0,0-2,2.3c-.36,2.19-.81,4.36-1.23,6.54a2,2,0,0,0,1.2,2.43c2,.94,4,1.91,5.9,3a2.85,2.85,0,0,0,2.92,0c4.48-2.26,9-4.47,13.47-6.7,2-1,2.22-.88,2.22,1.52,0,6.61,0,13.21,0,19.82a4.33,4.33,0,0,0,1.26,3.39c2,2,4,4.1,5.87,6.24.94,1.06,1.6,1,2.52,0,1.86-2.09,3.75-4.15,5.74-6.1a5,5,0,0,0,1.43-3.91c0-6.67,0-13.33,0-20,0-1.7.56-1.8,1.83-1.14,3.1,1.61,6.36,2.91,9.3,4.77,4,2.52,7.76,3.15,11.66,0a5.08,5.08,0,0,1,1.47-.74c1.28-.47,1.58-1.44,1.34-2.72-.36-1.93-.77-3.85-1.06-5.79a3.42,3.42,0,0,0-1.91-2.75c-7-3.8-13.95-7.68-20.94-11.48a3.09,3.09,0,0,1-1.83-3.13c.08-4.51,0-9,0-13.53,0-2.13.18-2.24,2.09-1.44,5.07,2.1,10.15,4.18,15.2,6.34,1.3.55,1.57.15,1.56-1.16q0-6.76.29-13.52c.08-1.58.45-1.87,1.82-1.21,4.89,2.38,9.79,4.76,14.74,7a2.72,2.72,0,0,1,1.86,3.3c-.77,6.29-1.25,12.63-2.19,18.89-.5,3.35-.12,5.81,3.19,7.07a3.37,3.37,0,0,1,1.05.74c2.69,2.58,5.38,3,8.19.17a7.93,7.93,0,0,1,2-1.25,3.22,3.22,0,0,0,1.8-3.36c-.12-4.57-.08-9.15-.11-13.72,0-2.58,0-2.6,2.18-1.42q11.4,6.14,22.78,12.3a2.12,2.12,0,0,0,2.36.24c2.59-1.51,5.24-2.92,7.89-4.34a1.84,1.84,0,0,0,1-2.48c-.66-2.24-1.28-4.51-1.79-6.79a3.09,3.09,0,0,0-1.9-2.3q-11.51-5.47-23-11c-.46-.22-1.2-.28-1.14-1,0-.56.69-.62,1.12-.84l13.8-6.86c1.69-.84,2.55-8.22,1.1-9.47a7.23,7.23,0,0,0-1.09-.68c-1.48-.88-3-1.65-4.41-2.65a2.52,2.52,0,0,0-3.28-.05c-6.79,4.32-13.63,8.53-20.45,12.79-.92.57-1.68,1-2.81.25-5.34-3.39-10.72-6.7-16.12-10-1.29-.78-1-1.23.06-1.89,3.89-2.34,7.75-4.73,11.64-7.08,1.67-1,1.7-1.07.1-2.16-3.91-2.67-7.82-5.35-11.75-8-1.2-.8-1.41-1.35,0-2.21q7.88-4.75,15.67-9.65a2.6,2.6,0,0,1,3.17,0c6.42,4.09,12.93,8,19.3,12.21,1.95,1.28,3.29,1,5.37.09,4.6-1.91,5.73-5.13,5-9.81a2.78,2.78,0,0,0-1.58-2.46c-4.45-2.18-8.86-4.43-13.29-6.65-.59-.3-1.5-.4-1.57-1.12s.89-.89,1.45-1.17q11.14-5.38,22.3-10.72c.89-.43,1.76-.81,2-2,.61-2.52,1.25-5,2-7.53a1.55,1.55,0,0,0-.9-2.11c-2.37-1.28-4.74-2.56-7-4a3.44,3.44,0,0,0-3.89,0c-7.56,4.16-15.17,8.25-22.77,12.34-1.74.94-1.92.81-1.88-1.28q.13-7.24.33-14.47a2.35,2.35,0,0,0-1.08-2.4c-1.89-1.14-3.75-2.34-5.6-3.55a2,2,0,0,0-2.51,0c-2.07,1.44-4.18,2.82-6.3,4.17a2.11,2.11,0,0,0-1.1,2.31c.84,7.56,1.57,15.13,2.43,22.69a2,2,0,0,1-1.22,2.38c-5.14,2.42-10.28,4.85-15.39,7.33-1.49.73-1.95.25-1.94-1.35,0-4.25,0-8.51-.26-12.75-.14-2.24-.17-2.31-2.22-1.46-4.85,2-9.7,4-14.53,6.06-1.46.62-2,.28-1.93-1.37.06-4.32.16-8.65,0-13a4,4,0,0,1,2.49-4.26c6.21-3.31,12.33-6.82,18.56-10.08,2.24-1.17,3.77-2.53,3.85-5.35a18.91,18.91,0,0,1,.78-4.29,1.81,1.81,0,0,0-1.14-2.4c-2-1-3.94-2-5.86-3a2.77,2.77,0,0,0-2.9-.06c-4.47,2.27-9,4.49-13.45,6.72-2.12,1.05-2.24,1-2.25-1.41C973.06,1586.63,973.07,1583.33,973.06,1580Zm-8.71,63.65c3.39,0,6.79,0,10.18,0a3,3,0,0,1,3,1.67q5.27,9,10.66,18a2.7,2.7,0,0,1,0,3.14q-5.54,9.17-11,18.39a1.77,1.77,0,0,1-1.74,1.09c-6.66-.39-13.32.19-20,.17a4.62,4.62,0,0,1-4.68-2.64c-3.08-5.54-6.41-10.92-9.72-16.31a3.64,3.64,0,0,1-.05-4.45c3.52-5.63,6.87-11.37,10.19-17.13a3.31,3.31,0,0,1,3.39-1.9C957.81,1643.75,961.08,1643.67,964.35,1643.67Z"/><path class="cls-8" d="M1852.41,1141.85c.63-11.75-7.67-22.26-18.49-23.32a14.31,14.31,0,0,0-3,.13c-2.33-16.82-15.71-30-32.34-31.55V1087c-1.06-39.14-35.94-71.74-76.61-68.35-33.58,2.81-60,28.39-64.46,58.49-23.59,6.34-36.62,30.33-30.56,52.12,5.46,19.62,24.18,31.54,45,29.27,50.31-5.27,76-3.83,127.45-.2.38,0,.74-.06,1.12-.08,13.08.65,26.8.84,31.76,1.63C1842.78,1161.5,1851.78,1153.59,1852.41,1141.85Z"/><path class="cls-9" d="M556.28,82.39c-14.43,31.11-86.57,54.39-109.7,79.33-33.5,30-30,82.72-13.47,115.72C444,228,468,188.49,505.45,172c-11.38,12.87-23.65,24.12-32.55,37.58a193,193,0,0,0-22.38,45.74c-.36,1-.62,2.11-.93,3.17h0S435.3,299.27,435.88,329l17.4-4.72s-5.34-12.53-2.42-35.39a85,85,0,0,1,40.47-31c26.9-11,42.73-20.13,55.39-30C594.21,196.44,597.17,145.47,556.28,82.39Z"/><path class="cls-10" d="M235.69,1159.34l67.07-42.44c-.29,2.19-9.2,35.12-9.2,35.12S266,1188.19,266,1188.19L223,1200.93S235.6,1159.94,235.69,1159.34Z"/><path class="cls-10" d="M89.86,1075.32a.08.08,0,0,0,0,.09l14.86,43.28a.07.07,0,0,0,.05,0l59.48-2.7L231,1146.54h.06l72.8-41.57s-1.69-38.7-1.72-38.73L275,1054.7s-13.51-31.17-13.52-31.17l-77-4.84-18,23.05-41.74,2.13,0,0Z"/><path class="cls-10" d="M108.81,1128.27l18.3,44.26,29.52,1.87,56.17,22.72a.07.07,0,0,0,.09-.05l9.78-39a.07.07,0,0,0-.06-.09l-60.56-31.44Z"/></g><g id="arrows_copy" data-name="arrows copy"><path class="cls-11" d="M221,821.53l-37.72-4.61c5.47-44.8,17.73-116.69,45.06-204.81C254.11,529,279.9,470.73,297,436.45l34,17c-16.47,33-41.35,89.31-66.38,170C238.13,708.8,226.27,778.28,221,821.53Z"/><polygon class="cls-11" points="245.12 810.71 197.36 879.03 162.06 803.51 245.12 810.71"/><polygon class="cls-11" points="345.06 476.06 343.54 392.71 272.11 435.68 345.06 476.06"/><path class="cls-12" d="M315.47,852.19l-37.71-4.7c5.55-44.49,17.88-116.27,45.12-205.57,25.58-83.84,51.1-141.54,68-175.18l34,17.06C408.6,516.13,384,571.73,359.23,653,332.78,739.72,320.84,809.19,315.47,852.19Z"/><polygon class="cls-12" points="339.62 841.44 291.68 909.63 256.58 834.02 339.62 841.44"/><polygon class="cls-12" points="438.63 506.67 437.86 423.31 366.05 465.64 438.63 506.67"/><path class="cls-11" d="M798.32,1429.73c-64.55-82.35-181.26-247.93-237.68-431.6-56.58-184.17-70-396.73-73-507l38-1c2.91,108.37,16,317,71.29,496.9,54.62,177.81,168.34,339,231.26,419.32Z"/><polygon class="cls-11" points="838.07 1382.07 851.36 1464.36 773.44 1434.73 838.07 1382.07"/><polygon class="cls-11" points="548.82 502.12 506.01 430.6 465.46 503.43 548.82 502.12"/><path class="cls-12" d="M893.57,1405c-61.79-77.37-175.24-237.89-240.88-443.64-65.38-204.94-73.25-399-72.12-496.48l38,.44c-1.1,95.16,6.56,284.64,70.32,484.49S863.11,1306,923.26,1381.28Z"/><polygon class="cls-12" points="932.71 1356.81 947.19 1438.91 868.85 1410.41 932.71 1356.81"/><polygon class="cls-12" points="641.06 478.7 601.84 405.14 557.73 475.88 641.06 478.7"/><path class="cls-11" d="M1478,971.45c-58.88-82.73-180.62-238.69-334.37-353.72C989.73,502.57,801.37,433.5,702.79,402.57l11.37-36.26C815.05,398,1008,468.76,1166.43,587.31,1324.32,705.43,1448.82,864.88,1509,949.42Z"/><polygon class="cls-11" points="1520.61 926.92 1527.29 1010.01 1451.98 974.27 1520.61 926.92"/><polygon class="cls-11" points="731.88 348.12 650.86 367.73 708.35 428.1 731.88 348.12"/><path class="cls-12" d="M1538.66,893.24a1972.92,1972.92,0,0,0-134.94-169.56c-69.41-77.69-138.16-140.74-204.34-187.41-149.89-105.69-341.21-179-441.91-213.34l12.25-36c102.64,35,297.78,109.82,451.55,218.25,154.46,108.92,284.57,276.08,348.38,366Z"/><polygon class="cls-12" points="1581.3 848.73 1587.93 931.83 1512.64 896.04 1581.3 848.73"/><polygon class="cls-12" points="788.08 269.4 706.5 286.54 762.13 348.63 788.08 269.4"/><path class="cls-11" d="M396.35,894.32l-31-22c61.86-86.94,188.29-249.55,340-361.82,67.73-50.14,152.2-97.7,251.07-141.36A2098.06,2098.06,0,0,1,1165,290.42l11.5,36.22a2059.41,2059.41,0,0,0-204.7,77.22C875.47,446.39,793.43,492.54,728,541,580.51,650.16,456.9,809.22,396.35,894.32Z"/><polygon class="cls-11" points="422.36 897.16 347.01 932.83 353.79 849.74 422.36 897.16"/><polygon class="cls-11" points="1171.23 352.26 1228.23 291.42 1147.05 272.47 1171.23 352.26"/><path class="cls-12" d="M451,974.57l-30.71-22.38c62.06-85.16,189.3-245.92,344.27-365.7C920.46,466,1116.29,398,1219.15,368.2l10.57,36.5c-100.26,29.05-291,95.2-441.91,211.85C636.58,733.46,511.89,891,451,974.57Z"/><polygon class="cls-12" points="476.98 977.73 401.22 1012.5 408.97 929.5 476.98 977.73"/><polygon class="cls-12" points="1223.56 430.11 1282.43 371.1 1201.89 349.61 1223.56 430.11"/><path class="cls-11" d="M935.2,1188.15c-191,0-369.16-49.57-461.26-80.32l12-36c95.1,31.74,284.12,84.07,481.73,77.86,202.34-6.36,387.77-55.29,480.3-83.89l11.22,36.3c-94.36,29.17-283.53,79.06-490.33,85.57Q952,1188.15,935.2,1188.15Z"/><polygon class="cls-11" points="477.53 1132.93 423.54 1069.42 505.53 1054.41 477.53 1132.93"/><polygon class="cls-11" points="1454.81 1126.98 1510.56 1065.01 1429.01 1047.7 1454.81 1126.98"/><path class="cls-12" d="M941.93,1284.41c-163.9,0-360.13-51-465.72-82.43l10.86-36.42c50.52,15.06,128.93,36.6,215.61,53.69,102.8,20.26,191.51,29.26,263.65,26.75,71.55-2.5,229.37-17,482.41-86.45l10.05,36.65c-51,14-130.25,34.36-218.33,52-105.22,21.09-197,33.12-272.8,35.76C959.18,1284.27,950.59,1284.41,941.93,1284.41Z"/><polygon class="cls-12" points="481.03 1226.96 424.4 1165.78 505.7 1147.32 481.03 1226.96"/><polygon class="cls-12" points="1453.31 1221.12 1511.42 1161.37 1430.61 1140.9 1453.31 1221.12"/><path class="cls-11" d="M1049.3,1402l-30.88-22.15c57-79.49,161.34-240.19,219.44-423.35,58.68-185,72-387.68,74.66-492l38,1c-2.75,106.37-16.33,313.1-76.43,502.54C1214.39,1156.13,1107.63,1320.64,1049.3,1402Z"/><polygon class="cls-11" points="1074.3 1405.7 997.81 1438.85 1007.34 1356.03 1074.3 1405.7"/><polygon class="cls-11" points="1372.72 477.65 1331.98 404.93 1289.36 476.57 1372.72 477.65"/><path class="cls-12" d="M1142,1434.21l-31.16-21.75c58-83,164.07-249.71,223.25-433,59.34-183.77,71.5-384.38,73.46-487.61l38,.72c-2,105.32-14.45,310.15-75.29,498.57C1309.55,1179.13,1201.18,1349.43,1142,1434.21Z"/><polygon class="cls-12" points="1167.1 1437.58 1091.1 1471.84 1099.42 1388.89 1167.1 1437.58"/><polygon class="cls-12" points="1467.84 504.64 1426.55 432.22 1384.47 504.18 1467.84 504.64"/><path class="cls-11" d="M681.66,1589.77c-39.6-18-102.56-51.16-177.63-106.71-71.61-53-119.17-96.68-146.45-124l26.89-26.85c26.37,26.4,72.44,68.71,142.17,120.31,72.41,53.58,132.83,85.41,170.77,102.67Z"/><polygon class="cls-11" points="693.86 1528.79 745.41 1594.31 662.9 1606.2 693.86 1528.79"/><polygon class="cls-11" points="410.32 1326 330.75 1301.16 349.01 1382.5 410.32 1326"/><path class="cls-12" d="M740.93,1508.53c-40.07-19-104-53.31-181-108.61-57.72-41.46-106.2-81.83-144.1-120l27-26.77c25,25.22,69.53,65.81,139.3,115.92,74.69,53.65,136.45,86.79,175.11,105.14Z"/><polygon class="cls-12" points="754.46 1447.86 804.39 1514.6 721.62 1524.49 754.46 1447.86"/><polygon class="cls-12" points="468.95 1247.42 389.73 1221.46 406.84 1303.04 468.95 1247.42"/><path class="cls-11" d="M1251.84,1591.59l-16.89-34c35.32-17.52,92.61-49.74,165-103.69,71.48-53.26,117.91-97.1,144.27-124.5l27.38,26.35c-27.35,28.43-75.39,73.83-148.95,128.63C1348,1540,1288.55,1573.37,1251.84,1591.59Z"/><polygon class="cls-11" points="1518.17 1323.76 1597.16 1297.13 1580.74 1378.86 1518.17 1323.76"/><polygon class="cls-11" points="1237.55 1531.05 1188.28 1598.29 1271.15 1607.35 1237.55 1531.05"/><path class="cls-12" d="M1194.3,1508.79,1176.94,1475c37.32-19.15,97.24-53,170.78-105.76,70.17-50.29,115.05-93,140.35-119.92l27.71,26c-26.46,28.18-73.25,72.71-145.92,124.79C1294.43,1454.17,1232.75,1489,1194.3,1508.79Z"/><polygon class="cls-12" points="1461.72 1244.41 1540.11 1216.04 1525.5 1298.11 1461.72 1244.41"/><polygon class="cls-12" points="1178.7 1448.67 1131.23 1517.2 1214.31 1524.06 1178.7 1448.67"/><path class="cls-11" d="M1716.26,813.9c-7-42.37-21-110.75-47.4-195.94-25.16-81.05-52.3-137.07-70.65-169.79l33.14-18.58c19.24,34.31,47.66,92.89,73.8,177.11,27.07,87.24,41.37,157.44,48.59,201Z"/><polygon class="cls-11" points="1585.61 471.84 1582.14 388.55 1656.01 427.19 1585.61 471.84"/><polygon class="cls-11" points="1691.74 804.42 1742.85 870.27 1774.33 793.08 1691.74 804.42"/><path class="cls-12" d="M1623.82,842.62c-5.74-39.11-18.65-103.62-47.5-188.78-28.53-84.2-56.18-142-74.36-175.73l33.44-18c18.87,35,47.53,94.87,76.91,181.57,29.77,87.86,43.14,154.79,49.11,195.46Z"/><polygon class="cls-12" points="1488.76 501.24 1487.42 417.88 1560.28 458.39 1488.76 501.24"/><polygon class="cls-12" points="1599.43 831.95 1648.13 899.6 1682.38 823.6 1599.43 831.95"/><path class="cls-11" d="M776.61,136.12l-6.34-37.47C808.55,92.18,873.38,84,964.91,81.6c93.46-2.42,161.21,4.1,201.6,10l-5.48,37.6c-38.92-5.68-104.36-11.95-195.13-9.6C876.59,121.89,813.67,129.85,776.61,136.12Z"/><polygon class="cls-11" points="794.06 156.18 714.84 130.23 776.91 74.59 794.06 156.18"/><polygon class="cls-11" points="1143.86 149.51 1222.6 122.14 1159.53 67.63 1143.86 149.51"/><path class="cls-12" d="M776.09,236l-6.16-37.5c37.65-6.18,101.05-14.25,189.32-17.63,93-3.56,163.75,3.41,206.77,9.88l-5.65,37.58c-41.4-6.23-109.65-12.93-199.67-9.49C874.4,222.11,812.67,230,776.09,236Z"/><polygon class="cls-12" points="793.22 256.14 714.27 229.38 776.91 174.38 793.22 256.14"/><polygon class="cls-12" points="1143.24 248.55 1222.02 221.29 1159.03 166.69 1143.24 248.55"/><path class="cls-13" d="M695,793.65l-25-14.15-.16.15q6.08,5.77,8,7.8l11.18,11.82-4.81,4.55-24-25.41,7.33-6.94L692,785.22l.1-.1-12-25.47,7.34-6.94,24,25.41-5,4.75-11.38-12q-.81-.85-1.83-2t-5.36-6.13l-.16.15L700,789Z"/><path class="cls-13" d="M733.65,757.87l-7.48-4.45L716.74,762l3.73,7.86-5.91,5.38L700,741l6.71-6.11,32.81,17.63Zm-13-7.86q-10.22-6-11.55-6.8t-2-1.31q1.48,2.8,6.85,14.24Z"/><path class="cls-13" d="M752.89,740.75l-5.56,4.91-19.06-21.6-7.12,6.29-4.08-4.63,19.8-17.48,4.08,4.63-7.12,6.29Z"/><path class="cls-13" d="M774.24,722.25l-5.63,4.83L749.87,705.2l-7.21,6.18-4-4.69,20.06-17.19,4,4.69-7.21,6.18Z"/><path class="cls-13" d="M801,699.83l-15.5,12.87L763.14,685.8l15.5-12.87,3.88,4.68-9.79,8.13,4.91,5.91,9.11-7.57,3.88,4.67-9.11,7.57,5.76,6.94,9.79-8.13Z"/><path class="cls-13" d="M803.91,680.19l8.4,10.47-5.79,4.64L784.63,668l8-6.38q5.56-4.46,9.85-4.58t7.6,4a9.27,9.27,0,0,1,2.11,5.35,11.24,11.24,0,0,1-1.39,5.95q13.54,4.26,17.56,5.45L821.9,683,807,677.72Zm-3.77-4.7L802,674a9.15,9.15,0,0,0,3.32-4.16,4.18,4.18,0,0,0-1-3.92,3.83,3.83,0,0,0-3.55-1.69,10.38,10.38,0,0,0-4.79,2.5l-1.75,1.41Z"/><path class="cls-13" d="M846.11,627.41a7.56,7.56,0,0,0-3.32,6.4q0,3.9,3.4,8.4,7,9.38,14,4.13a27.74,27.74,0,0,0,6.05-6.81l3.72,5a24.79,24.79,0,0,1-6.64,7.19q-6.12,4.56-12.13,3.27t-11.19-8.24a21.7,21.7,0,0,1-4.12-8.85,14.34,14.34,0,0,1,.81-8.46,16.88,16.88,0,0,1,5.68-7,23.54,23.54,0,0,1,9.68-4.15l1.69,6.26a39.43,39.43,0,0,0-4.14,1.06A11.77,11.77,0,0,0,846.11,627.41Z"/><path class="cls-13" d="M873.58,618.21l-2.43-16,6.5-4.64,3,24.13,7.91,11.08-6,4.28-7.77-10.88-22-10.84,6.54-4.67Z"/><path class="cls-13" d="M897.24,591.09a7.56,7.56,0,0,0-3.59,6.25q-.13,3.89,3,8.54,6.59,9.67,13.84,4.72a27.76,27.76,0,0,0,6.34-6.55l3.5,5.14a24.78,24.78,0,0,1-6.94,6.9q-6.31,4.3-12.26,2.75t-10.83-8.71a21.7,21.7,0,0,1-3.74-9,14.35,14.35,0,0,1,1.17-8.41,16.86,16.86,0,0,1,6-6.72,23.56,23.56,0,0,1,9.85-3.73l1.42,6.33a39.68,39.68,0,0,0-4.18.88A11.76,11.76,0,0,0,897.24,591.09Z"/><path class="cls-13" d="M927.17,606.3l-19-29.34,6.22-4,15.71,24.2L942,589.4l3.34,5.14Z"/><path class="cls-13" d="M967.43,580.81,950.29,591.4,931.9,561.65,949,551.05l3.2,5.17-10.83,6.69,4,6.53,10.07-6.23,3.2,5.17-10.07,6.23,4.74,7.67,10.83-6.69Z"/><path class="cls-13" d="M986.36,558.33a9,9,0,0,1,.86,8.16q-1.55,4.08-6.78,7.17a22.28,22.28,0,0,1-9.6,3.22l-3.5-5.93a41,41,0,0,0,6.29-1.13,17.73,17.73,0,0,0,4.19-1.72,6.38,6.38,0,0,0,2.75-2.71,3.19,3.19,0,0,0-.29-3.05,3.06,3.06,0,0,0-1.42-1.29,6.45,6.45,0,0,0-2.24-.47,43.62,43.62,0,0,0-5.11.27,21.44,21.44,0,0,1-5.61,0,10.87,10.87,0,0,1-3.85-1.48,9.22,9.22,0,0,1-3-3.22,9,9,0,0,1-1-7.88q1.36-3.89,6.14-6.71a20.46,20.46,0,0,1,4.81-2.09,35.85,35.85,0,0,1,5.39-1.07l.87,6.18a35,35,0,0,0-4.8,1,14.87,14.87,0,0,0-3.33,1.44,4.77,4.77,0,0,0-2.28,2.49,3.23,3.23,0,0,0,.33,2.78,3.17,3.17,0,0,0,1.26,1.24,5,5,0,0,0,2,.48,44.86,44.86,0,0,0,5.29-.28q5.42-.47,8.18.63A9.18,9.18,0,0,1,986.36,558.33Z"/><path class="cls-14" d="M1149.93,1091.69l-8,18.49-32.1-13.9,8-18.49,5.58,2.42-5.06,11.68,7,3.05,4.71-10.87,5.58,2.42-4.71,10.87,8.28,3.58,5.06-11.68Z"/><path class="cls-14" d="M1164.41,1056.42l-3.55,8.73-30.24,4.13-.08.2q6.67,2.22,9.44,3.35l15.25,6.2-2.5,6.14-32.4-13.17,3.52-8.67,30-4.21.06-.15q-6.45-2.24-9.07-3.3l-15.34-6.24,2.51-6.18Z"/><path class="cls-14" d="M1174.7,1029.54l-7.19,18.82-32.68-12.49,7.19-18.82,5.68,2.17-4.54,11.89,7.17,2.74,4.23-11.06,5.68,2.17L1156,1036l8.42,3.22,4.54-11.89Z"/><path class="cls-14" d="M1167.09,1011.31l12.62,4.57-2.52,7L1144.3,1011l3.47-9.58q2.43-6.7,6-9t8.58-.54a9.27,9.27,0,0,1,4.58,3.46,11.23,11.23,0,0,1,1.91,5.8q13.78-3.41,17.83-4.49l-2.8,7.74-15.46,3.29Zm-5.67-2.05.81-2.25a9.15,9.15,0,0,0,.66-5.28,4.18,4.18,0,0,0-2.89-2.83,3.83,3.83,0,0,0-3.91.4,10.39,10.39,0,0,0-2.79,4.63l-.76,2.11Z"/><path class="cls-14" d="M1173.77,973.64l4.47-13.14,17.17,5.84a39.17,39.17,0,0,1-.59,6.51,41.21,41.21,0,0,1-1.54,5.91q-2.55,7.5-8.3,10t-14-.35q-8-2.73-10.94-8.84t-.16-14.25a26,26,0,0,1,5.38-9.14l4.82,4.25a17.61,17.61,0,0,0-4.38,6.93,9.84,9.84,0,0,0,.58,8.33,12.53,12.53,0,0,0,7.29,5.54q5.39,1.84,9,.59a8.07,8.07,0,0,0,5-5.45,24,24,0,0,0,1.07-4.62l-6.91-2.35-2.14,6.27Z"/><path class="cls-14" d="M1183.11,942.42l-11.49-11.35,2.44-7.61,16.8,17.58,13,4.16-2.25,7-12.73-4.09-24.12,4.45,2.46-7.66Z"/><path class="cls-14" d="M1218,898.76l-2,7L1182.37,896l5.61-19.25,5.83,1.7-3.57,12.24,8.66,2.52,3.32-11.39,5.81,1.69-3.32,11.39Z"/><path class="cls-14" d="M1223.4,880l-33.71-9.35,2-7.15,27.8,7.71,3.79-13.67,5.9,1.64Z"/><path class="cls-14" d="M1221.79,818.31q8.4,2.2,11.83,7.54T1235,839q-2,7.78-7.63,10.77t-14.05.78q-8.45-2.21-11.82-7.55t-1.33-13.14q2-7.8,7.61-10.76T1221.79,818.31Zm-6.45,24.7q5.67,1.48,9.1.08a7.78,7.78,0,0,0,4.55-5.69q2.24-8.59-9.17-11.57t-13.67,5.56a7.84,7.84,0,0,0,1.2,7.21Q1209.67,841.53,1215.34,843Z"/><path class="cls-14" d="M1248.5,782.75l-2,8.21-19,.29q-1,0-4.15-.08t-4.18-.26q1.22.44,3.87,1.67t3.76,1.82l16.71,8.88-2,8.19-36.1.47,1.71-7.09,19.61.13q5.42.1,9.31.5-1.29-.46-4-1.63t-4.09-2l-17.85-9.55,1.64-6.81,20.24-.36q1.36,0,4.1.13t4.69.34q-1.76-.67-4.34-1.84t-4.16-2l-17.52-8.8,1.71-7.09Z"/><path class="cls-14" d="M1246.52,747.61a9,9,0,0,1,6.53,5q1.91,3.93.58,9.85a22.28,22.28,0,0,1-4.23,9.2l-6.72-1.52a40.64,40.64,0,0,0,3.49-5.36,17.69,17.69,0,0,0,1.62-4.23,6.37,6.37,0,0,0-.09-3.86,3.19,3.19,0,0,0-2.42-1.88,3.07,3.07,0,0,0-1.91.16,6.46,6.46,0,0,0-1.87,1.31,43.27,43.27,0,0,0-3.31,3.9,21.54,21.54,0,0,1-3.88,4.06,10.86,10.86,0,0,1-3.71,1.79,9.22,9.22,0,0,1-4.41,0,9,9,0,0,1-6.43-4.67q-1.9-3.65-.68-9.07a20.53,20.53,0,0,1,1.77-4.93,35.75,35.75,0,0,1,2.91-4.65l5.1,3.6a35.13,35.13,0,0,0-2.58,4.16,14.94,14.94,0,0,0-1.24,3.41,4.77,4.77,0,0,0,.25,3.37,3.24,3.24,0,0,0,2.25,1.66,3.17,3.17,0,0,0,1.77-.07,5,5,0,0,0,1.7-1.1,45,45,0,0,0,3.43-4q3.37-4.27,6.07-5.52A9.18,9.18,0,0,1,1246.52,747.61Z"/></g></g></svg>