<svg xmlns="http://www.w3.org/2000/svg" viewBox="0 0 1239.44 1239.44"><defs><style>.cls-1{fill:none;}.cls-2{fill:#fff;}.cls-13,.cls-3{fill:#f4a300;}.cls-14,.cls-4{fill:#7391ff;}.cls-15,.cls-5{fill:#69bcff;}.cls-16,.cls-6{fill:#b7d313;}.cls-17,.cls-7{fill:#21dbc0;}.cls-8{fill:#e1f9ff;}.cls-9{fill:#e6fcff;}.cls-10{fill:#dcffff;}.cls-11{fill:#feffca;}.cls-12{fill:#fff5dc;}.cls-13,.cls-14,.cls-15,.cls-16,.cls-17{stroke:#fff;stroke-linecap:square;stroke-miterlimit:10;stroke-width:17px;}</style></defs><title>sphere_pie_2</title><g id="Layer_2" data-name="Layer 2"><g id="Layer_1-2" data-name="Layer 1"><g id="Layer_2-2" data-name="Layer 2"><g id="Layer_1-2-2" data-name="Layer 1-2"><circle class="cls-1" cx="619.72" cy="619.72" r="619.72"/><circle class="cls-2" cx="619.72" cy="619.72" r="553.47"/><g id="Layer_2-2-2" data-name="Layer 2-2"><path class="cls-3" d="M619.23,617.68l-215.87,427C214.74,949.29,114.07,753.17,146.49,544.25Z"/><path class="cls-4" d="M619.23,617.68,958.56,955c-149,150-366.56,185.09-555.19,89.68Z"/><path class="cls-5" d="M619.23,617.68l425.58-218.53c96.54,188.09,62.74,405.92-86.25,555.87Z"/><path class="cls-6" d="M619.23,617.68,146.49,544.25c32.42-208.92,187.77-365.27,396.44-399Z"/><path class="cls-7" d="M619.23,617.68l-76.3-472.4c208.66-33.7,405.34,65.78,501.89,253.87Z"/><path class="cls-8" d="M816.9,408.53c-21.51,45.53-72,67.73-112.25,49.26s-55.54-70.75-34-116.27,82.79-62.77,135.79-99.21C812.13,305.69,838.63,362.53,816.9,408.53Zm-24.2-148c-47.78,36.28-95.62,58.78-107.41,91.53-9.64,24.82,2.32,37.06,6.89,19.37,10.72-41.21,60.83-73,100.51-110.9Z"/><path class="cls-9" d="M677.34,998.67c.59,3.64,1.2,7.27,1.75,10.91a3.82,3.82,0,0,0,1.53,2.72c2.67,2,5.33,4,7.94,6.08,1,.84,1.64.67,2.34-.42,1.7-2.64,3.43-5.26,5.27-7.78a4.81,4.81,0,0,0,.83-4c-1.19-7.06-2.31-14.13-3.44-21.2-.34-2.14-.16-2.29,1.86-1.66,5.2,1.61,10.41,3.21,15.6,4.87a2.89,2.89,0,0,0,2.93-.29c2-1.52,4-3,6-4.47a1.94,1.94,0,0,0,.85-2.61l-.07-.12a46.41,46.41,0,0,1-2-5.57,4.77,4.77,0,0,0-3.47-3.44c-7.77-2.67-15.48-5.52-23.22-8.26a3.27,3.27,0,0,1-2.53-2.94c-.65-4.8-1.51-9.56-2.27-14.35-.37-2.31-.22-2.45,1.9-2,5.61,1.32,11.22,2.59,16.81,4,1.55.4,2,.12,1.78-1.53q-1.07-7.08-2.08-14.16c-.28-2,0-2.21,1.83-1.68,4.72,1.36,9.44,2.76,14.17,4.11,5.2,1.49,5.09,1.48,5.31,7.22.24,6.66.72,13.32,1,20a3.08,3.08,0,0,0,2.1,3.06c2.44,1,4.83,2.13,7.2,3.28a1.73,1.73,0,0,0,2.25-.41,64,64,0,0,1,4.89-4.32,3.23,3.23,0,0,0,1.25-3.52c-1-4.81-1.82-9.64-2.69-14.47-.5-2.77-.28-3,2.24-2.09l25.87,9a3.13,3.13,0,0,0,3.42-.53q3.33-2.78,6.81-5.38a1.91,1.91,0,0,0,.7-2.61l-.1-.16a51.48,51.48,0,0,1-2.61-6,5.06,5.06,0,0,0-3.91-3.5c-8.39-2.37-16.74-4.89-25.11-7.36-.54-.16-1.34-.13-1.43-.85s.69-.89,1.15-1.23c4.41-3.2,8.8-6.42,13.25-9.57a2.7,2.7,0,0,0,1.24-3.07,36,36,0,0,1-.62-5.07,2.25,2.25,0,0,0-1.56-2.3c-2-.78-4.06-1.55-6-2.45a2.55,2.55,0,0,0-3.16.47c-6.51,5.77-13.11,11.43-19.62,17.19a2.75,2.75,0,0,1-3.33.52c-6-2.53-12.06-5-18.09-7.44-2-.8-2-1-.37-2.5,3.35-3.08,6.68-6.19,10.06-9.23,1.15-1,1.26-1.65-.31-2.39-4.24-2-8.42-4.12-12.63-6.2-2-1-2-1.12-.29-2.64,4.78-4.14,9.62-8.21,14.33-12.43a3.4,3.4,0,0,1,4.19-.59c6.89,3,13.91,5.68,20.7,8.92,3.34,1.59,5.51,1,8.27-1.28s4.21-4.6,2.73-8.29a6.78,6.78,0,0,1-.36-2,2.44,2.44,0,0,0-2-2.37c-5.15-1.55-10.28-3.17-15.42-4.8-.6-.19-1.52-.15-1.68-.84-.2-.89.79-1.12,1.33-1.5q11-7.67,22-15.27a3,3,0,0,0,1.66-2.31c.21-2.71.45-5.42.79-8.11a1.9,1.9,0,0,0-1.26-2.37l-.2,0c-2.74-.9-5.48-1.85-8.17-2.92a3.47,3.47,0,0,0-3.78.6c-7.21,5.6-14.48,11.14-21.74,16.68-.59.45-1.09,1.44-2,1s-.66-1.45-.71-2.23c-.33-5-1.46-9.84-2.08-14.78a2.83,2.83,0,0,0-1.87-2.59q-3.21-1.29-6.34-2.78a1.9,1.9,0,0,0-2.44.46c-1.9,1.84-3.83,3.64-5.82,5.36a2.9,2.9,0,0,0-.86,3.41c2.16,7.66,4.22,15.36,6.36,23a2.29,2.29,0,0,1-1,2.9c-4.93,3.36-9.81,6.79-14.72,10.19-1.79,1.24-2.1,1.14-2.5-1.06-.82-4.56-1.64-9.13-2.34-13.71-.27-1.79-.72-2.21-2.3-1.19-4.91,3.14-9.89,6.17-14.85,9.23-1.75,1.08-1.93,1-2.3-1.19-.77-4.64-1.43-9.3-2.29-13.93a3.84,3.84,0,0,1,1.65-4.29c6.63-5.07,13.16-10.27,19.74-15.41a3.37,3.37,0,0,0,1.68-2.77c0-2.38.11-4.76.18-7.14a2.11,2.11,0,0,0-1.69-2.38c-2.27-.65-4.53-1.34-6.76-2.13a3.05,3.05,0,0,0-3.09.51c-4.35,3.17-8.74,6.28-13.12,9.41-2,1.41-2.2,1.31-2.61-1.23-1.14-7-2.29-14-3.37-21a4.64,4.64,0,0,0-1.91-3.38c-2.49-1.78-4.92-3.66-7.29-5.61-1.17-1-1.87-.8-2.66.44-1.62,2.53-3.27,5-5,7.45a5.35,5.35,0,0,0-.85,4.39c1.16,7.06,2.24,14.14,3.43,21.2.3,1.8-.29,2-1.75,1.52-3.55-1.17-7.23-2-10.67-3.46-4.67-2-8.77-2-12.35,2a5.45,5.45,0,0,1-1.43,1c-1.28.72-1.43,1.8-1,3.11.72,2,1.48,4,2.12,6a3.67,3.67,0,0,0,2.5,2.59c8.06,2.83,16.09,5.75,24.15,8.58a3.32,3.32,0,0,1,2.48,3c.68,4.79,1.52,9.56,2.27,14.35.36,2.26.2,2.4-2,1.89-5.73-1.36-11.47-2.69-17.19-4.11-1.47-.37-1.69.11-1.45,1.49q1.2,7.16,2,14.38c.19,1.69-.16,2.06-1.73,1.59-5.59-1.69-11.18-3.36-16.81-4.88a2.92,2.92,0,0,1-2.53-3.18c-.26-6.8-.83-13.6-.92-20.39,0-3.63-.87-6.17-4.59-7a3.62,3.62,0,0,1-1.24-.61c-3.29-2.28-6.21-2.22-8.71,1.22a8.51,8.51,0,0,1-1.93,1.84,3.45,3.45,0,0,0-1.34,3.86c.91,4.82,1.65,9.68,2.46,14.52.46,2.73.45,2.75-2.07,1.88q-13.13-4.55-26.25-9.13c-.88-.31-1.65-.59-2.54.15-2.49,2-5,4-7.62,5.94a2,2,0,0,0-.66,2.75l0,0c1.08,2.27,2.12,4.56,3.06,6.89a3.31,3.31,0,0,0,2.41,2.12q13.13,3.82,26.22,7.76c.52.16,1.32.1,1.38.89,0,.6-.63.78-1,1.08l-13.44,9.63c-1.64,1.18-1.29,9.14.46,10.23a7.76,7.76,0,0,0,1.27.54c1.71.68,3.48,1.23,5.13,2.06a2.71,2.71,0,0,0,3.48-.51c6.45-5.73,13-11.37,19.48-17,.87-.76,1.61-1.32,2.94-.75,6.23,2.68,12.51,5.26,18.79,7.81,1.5.61,1.32,1.13.26,2-3.72,3.14-7.4,6.34-11.12,9.49-1.59,1.35-1.61,1.43.26,2.31q6.9,3.25,13.81,6.45c1.41.65,1.73,1.19.37,2.34q-7.54,6.38-15,12.91a2.79,2.79,0,0,1-3.36.52c-7.5-3.24-15.07-6.3-22.54-9.64-2.28-1-3.65-.45-5.71.82-4.55,2.81-5.19,6.42-3.62,11.25a3,3,0,0,0,2.1,2.34c5.08,1.55,10.15,3.18,15.22,4.77.68.21,1.66.17,1.86.92s-.79,1.1-1.34,1.48q-10.88,7.61-21.8,15.18c-.87.6-1.72,1.15-1.83,2.44-.22,2.78-.46,5.55-.8,8.32a1.66,1.66,0,0,0,1.16,2l.16,0c2.73,1,5.47,1.9,8.14,3a3.69,3.69,0,0,0,4.12-.66c7.3-5.71,14.66-11.34,22-17,1.68-1.29,1.89-1.19,2.21,1q1.1,7.69,2.13,15.39a2.53,2.53,0,0,0,1.55,2.36c2.2.88,4.37,1.84,6.54,2.81a2.14,2.14,0,0,0,2.66-.44c2-1.88,4-3.7,6-5.5a2.26,2.26,0,0,0,.77-2.64c-2.19-7.87-4.26-15.77-6.46-23.63a2.12,2.12,0,0,1,.89-2.73c5-3.45,10.06-6.9,15-10.41,1.46-1,2-.6,2.28,1.1.7,4.51,1.44,9,2.46,13.47.54,2.35.57,2.42,2.6,1.17,4.79-3,9.6-5.89,14.35-8.91,1.44-.91,2-.64,2.28,1.12.68,4.59,1.31,9.19,2.26,13.72a4.33,4.33,0,0,1-1.91,5c-6,4.58-11.9,9.33-17.94,13.86-2.17,1.62-3.56,3.33-3.17,6.33a20.3,20.3,0,0,1-.09,4.68,1.94,1.94,0,0,0,1.47,2.31l.15,0c2.26.7,4.51,1.41,6.73,2.23a3,3,0,0,0,3.08-.43c4.35-3.18,8.73-6.29,13.11-9.42,2.07-1.48,2.21-1.42,2.62,1.11C676.21,991.67,676.77,995.17,677.34,998.67Zm-1.67-69c-3.6.58-7.2,1.11-10.78,1.77a3.22,3.22,0,0,1-3.45-1.26q-7.12-8.65-14.37-17.2a2.9,2.9,0,0,1-.53-3.33q4.3-10.67,8.53-21.37a1.9,1.9,0,0,1,1.65-1.46c7.13-.73,14.08-2.48,21.15-3.6a5,5,0,0,1,5.41,2c4.21,5.34,8.66,10.48,13.1,15.63a3.91,3.91,0,0,1,.82,4.7c-2.77,6.56-5.33,13.23-7.86,19.9a3.56,3.56,0,0,1-3.27,2.59c-3.47.44-6.93,1.07-10.4,1.63Z"/><path class="cls-10" d="M880.67,777.77c12.4,2.38,24.79-4.91,27.49-16.26a15.37,15.37,0,0,0,.3-3.25c18.22,0,34.22-12.34,38.26-29.79h.17c41.77,4.58,81.53-27.76,83.84-71.51,1.91-36.13-21.45-67.91-52.81-77.09-3.3-26-26.92-43.38-51-40.11-21.66,3-37.06,21.12-37.69,43.64-1.73,54.28-7,81.42-18.36,135.59a6.9,6.9,0,0,1-.07,1.2c-2.59,13.82-4.8,28.39-6.36,33.54C861.17,764.65,868.27,775.38,880.67,777.77Z"/><path class="cls-11" d="M330.26,304.19c25.9,29.4,17.09,115.57,32.55,151.23,15.94,48.82,72.74,69.38,114.83,67.3-46.72-34.12-77-77.43-77-124.14C408.87,416.4,415,434.41,425,449.91a220.59,220.59,0,0,0,37.55,44.45c.91.85,1.92,1.62,2.88,2.43h0s36,33.74,67.4,46.74l3.07-20.37s-15.55-.18-38.13-13.75A97.17,97.17,0,0,1,484,452.84c.83-33.21-1.41-54-5.86-71.71C467,317,415,290.42,330.26,304.19Z"/><path class="cls-12" d="M382,697.53h-.06l-74.2-42a.08.08,0,0,1,0-.1l36.49-8.23s51,7.38,51,7.41l31.41,29.67s.39,1.57.35,1.58ZM375.5,880.79a.08.08,0,0,0,.09,0l31.9-41a.08.08,0,0,0,0-.07l-31.2-49.94-3.1-79.69a.08.08,0,0,0,0,0L295,663.25s-35.76,21.22-35.77,21.28l2.88,31.56s-22.64,28.59-22.63,28.6L273.95,820l30.93,5.34L328,863.73h0Zm41.73-52.39,34.58-33.87-13.2-28.88-7-64.68a.08.08,0,0,0-.1-.06h0l-41.85,10.51a.08.08,0,0,0-.06.1h0l1,73.25Z"/></g><g id="Layer_2_copy" data-name="Layer 2 copy"><path class="cls-13" d="M619.23,617.68l-215.87,427"/><path class="cls-14" d="M619.23,617.68,958.56,955"/><path class="cls-15" d="M619.23,617.68l425.58-218.53"/><path class="cls-16" d="M619.23,617.68,146.49,544.25"/><path class="cls-17" d="M619.23,617.68l-76.3-472.4"/></g><g id="Layer_4_copy" data-name="Layer 4 copy"><path class="cls-2" d="M866.46,1172.32a12.33,12.33,0,0,0,2.15,2.06,7.65,7.65,0,0,0,2.52,1.24,7.79,7.79,0,0,0,2.88.24,10,10,0,0,0,3.24-1,9.75,9.75,0,0,0,3.87-3.05,9.4,9.4,0,0,0,1.71-4.11,13.51,13.51,0,0,0-.11-4.66,19.79,19.79,0,0,0-4.13-8.82,13.51,13.51,0,0,0-3.51-3.06,9.41,9.41,0,0,0-4.25-1.32,9.75,9.75,0,0,0-4.82,1,8.67,8.67,0,0,0-3,2.17,8,8,0,0,0-1.6,2.9,9.19,9.19,0,0,0-.36,3.37,13.82,13.82,0,0,0,.76,3.57l-5.38,2.52a16.49,16.49,0,0,1-1.21-5.73,14,14,0,0,1,.91-5.35,13.64,13.64,0,0,1,2.92-4.57,15.87,15.87,0,0,1,4.81-3.39,16.38,16.38,0,0,1,6.94-1.66,15.34,15.34,0,0,1,6.4,1.33,17.53,17.53,0,0,1,5.44,3.85,22.22,22.22,0,0,1,6,12.75,17.52,17.52,0,0,1-.52,6.64A15.65,15.65,0,0,1,885,1175a16.15,16.15,0,0,1-5.71,4.29,18.43,18.43,0,0,1-5.32,1.61,14.23,14.23,0,0,1-5.12-.19,12.13,12.13,0,0,1-4.47-2,13,13,0,0,1-3.5-3.9Z"/><path class="cls-2" d="M859,1187.71l-15.44,6.12q-5.34,2.12-8.93.87a8.66,8.66,0,0,1-5.22-5.37,10.11,10.11,0,0,1-.84-4.09,9,9,0,0,1,.62-3.07,6.64,6.64,0,0,1,1.26-2,14.51,14.51,0,0,1,1.08-1.06V1179a6.27,6.27,0,0,1-1.74.17,5,5,0,0,1-2-.54,6.79,6.79,0,0,1-2-1.58,9.8,9.8,0,0,1-1.73-3,30.79,30.79,0,0,0-2.48-5,7.32,7.32,0,0,0-2.65-2.8l6.07-2.41a5.68,5.68,0,0,1,1.66,2q.62,1.22,1.08,2.4a25.11,25.11,0,0,0,1.79,3.72,7.19,7.19,0,0,0,2.06,2.28,4.53,4.53,0,0,0,2.59.78,9.34,9.34,0,0,0,3.39-.77l8.33-3.3-5.28-13.31,5.66-2.24Zm-11.49-12.47-9.28,3.68a6.32,6.32,0,0,0-3.61,2.92,5.38,5.38,0,0,0,.13,4.43,6.46,6.46,0,0,0,1.45,2.33,4,4,0,0,0,1.85,1,4.93,4.93,0,0,0,2.1,0,12.91,12.91,0,0,0,2.18-.65l9.19-3.64Z"/><path class="cls-2" d="M812.07,1182.83l19.08,15.91-6.7,2.24-13.67-11.86-3.65,17.65-6.46,2.16,5.63-24.17-4.36-12.93,5.77-1.93Z"/><path class="cls-2" d="M781.79,1215a16.17,16.17,0,0,1-7.13.4,15.66,15.66,0,0,1-6.08-2.45,17.54,17.54,0,0,1-4.68-4.75,22.2,22.2,0,0,1-3.65-13.59,17.55,17.55,0,0,1,1.67-6.45,15.38,15.38,0,0,1,4-5.15,17.71,17.71,0,0,1,13.5-3.62,15.35,15.35,0,0,1,6.07,2.43,17.51,17.51,0,0,1,4.68,4.74,22.21,22.21,0,0,1,3.65,13.59,17.52,17.52,0,0,1-1.67,6.45,15.64,15.64,0,0,1-4,5.17A16.15,16.15,0,0,1,781.79,1215Zm-1.29-4.8a9.76,9.76,0,0,0,4.34-2.33,9.42,9.42,0,0,0,2.4-3.75,13.49,13.49,0,0,0,.71-4.6,19.8,19.8,0,0,0-2.53-9.41,13.52,13.52,0,0,0-2.92-3.63,9.41,9.41,0,0,0-4-2,10.84,10.84,0,0,0-9.27,2.49,9.43,9.43,0,0,0-2.4,3.75,13.53,13.53,0,0,0-.71,4.6,19.8,19.8,0,0,0,2.53,9.41,13.55,13.55,0,0,0,2.92,3.63,9.42,9.42,0,0,0,4,2,9.76,9.76,0,0,0,4.93-.15Z"/><path class="cls-2" d="M749.94,1198.1a7.79,7.79,0,0,0-1.35-3.2,6.15,6.15,0,0,0-2.33-1.88,8.09,8.09,0,0,0-3-.73,13.62,13.62,0,0,0-3.45.28,11.06,11.06,0,0,0-3.25,1.14,6.91,6.91,0,0,0-2,1.63,4.33,4.33,0,0,0-.9,1.9,5,5,0,0,0,0,2,4.15,4.15,0,0,0,1.47,2.71,5.16,5.16,0,0,0,2.2.92,41.37,41.37,0,0,0,4.48.4q2.53.1,6.26.33a13,13,0,0,1,4,.75,8.87,8.87,0,0,1,2.74,1.6,7.44,7.44,0,0,1,1.72,2.18,10,10,0,0,1,.9,2.55,9,9,0,0,1-.16,4.68,9.77,9.77,0,0,1-2.2,3.71,12.75,12.75,0,0,1-3.63,2.66,17.88,17.88,0,0,1-4.41,1.53,18.18,18.18,0,0,1-5.17.34,12.68,12.68,0,0,1-4.58-1.22,10,10,0,0,1-5.55-7.31l6-1.22q.91,3.24,3.2,4.19a9.09,9.09,0,0,0,5.38.31,11.5,11.5,0,0,0,2.1-.66,7,7,0,0,0,1.86-1.13,4.47,4.47,0,0,0,1.22-1.67,4.24,4.24,0,0,0-1.55-4.88,7.4,7.4,0,0,0-3.25-1l-1.59-.1-3.09-.19-3.34-.18-2.34-.14a10.19,10.19,0,0,1-3.2-.83,9.41,9.41,0,0,1-2.5-1.65,8.8,8.8,0,0,1-1.75-2.25,9.41,9.41,0,0,1-1-2.59A9.83,9.83,0,0,1,728,1196a10.13,10.13,0,0,1,2.4-3.95,13.62,13.62,0,0,1,4-2.77,21.18,21.18,0,0,1,4.84-1.61,20.78,20.78,0,0,1,5.63-.41,13.08,13.08,0,0,1,4.93,1.28,10.93,10.93,0,0,1,3.83,3.17,12.87,12.87,0,0,1,2.31,5.22Z"/><path class="cls-2" d="M726.07,1226.41l-15.13,2.24a14.62,14.62,0,0,1-6.13-.18,9.54,9.54,0,0,1-4-2.12,9.11,9.11,0,0,1-2.22-3.22,15,15,0,0,1-1-3.4,14.59,14.59,0,0,1,0-3.51,9.12,9.12,0,0,1,1.2-3.7,9.34,9.34,0,0,1,3.18-3.15,14.86,14.86,0,0,1,5.82-1.92l9.16-1.35L715,1192.9l6-.89Zm-8.42-15.4-8.82,1.3a8,8,0,0,0-2,.59,6,6,0,0,0-1.81,1.23,4.86,4.86,0,0,0-1.19,1.95,6,6,0,0,0-.15,2.8,7.13,7.13,0,0,0,.89,2.72,4.52,4.52,0,0,0,1.56,1.57,4.68,4.68,0,0,0,2,.62,10.37,10.37,0,0,0,2.3-.09l8.91-1.31Z"/><path class="cls-2" d="M692.52,1231.13l-6.06.53-1.21-13.78-15.77,1.38,1.21,13.78-6.07.53-3-34.64,6.06-.53L669,1214l15.77-1.38L683.45,1197l6.06-.53Z"/><path class="cls-2" d="M655.83,1234l-25,.76-.16-5.26,18.94-.57-.28-9.1-17.53.53-.15-5,17.52-.53-.31-10.17-19.28.59-.16-5.26,25.36-.77Z"/><path class="cls-2" d="M623.7,1234.8l-16.6-.42q-5.75-.14-8.55-2.7a8.66,8.66,0,0,1-2.7-7,10.1,10.1,0,0,1,.83-4.1,9,9,0,0,1,1.77-2.59,6.65,6.65,0,0,1,2-1.39q1-.41,1.4-.55v-.1a6.23,6.23,0,0,1-1.67-.53,5,5,0,0,1-1.65-1.29,6.77,6.77,0,0,1-1.23-2.25,9.79,9.79,0,0,1-.42-3.42,30.8,30.8,0,0,0-.32-5.59,7.33,7.33,0,0,0-1.34-3.61l6.52.17a5.67,5.67,0,0,1,.74,2.5q.09,1.37,0,2.63a25.18,25.18,0,0,0,.19,4.12,7.2,7.2,0,0,0,1,2.9,4.54,4.54,0,0,0,2.08,1.73,9.34,9.34,0,0,0,3.42.62l9,.23.36-14.31,6.09.15Zm-5.68-16-10-.25a6.34,6.34,0,0,0-4.47,1.28,5.39,5.39,0,0,0-1.62,4.13,6.48,6.48,0,0,0,.42,2.71,3.94,3.94,0,0,0,1.3,1.66,4.94,4.94,0,0,0,1.93.83,13,13,0,0,0,2.26.25l9.88.25Z"/><path class="cls-2" d="M587.94,1233.59l-25-2,.42-5.24,18.88,1.52.73-9.08-17.48-1.41.4-5,17.48,1.41.82-10.15L565,1202.09l.42-5.24,25.29,2Z"/><path class="cls-2" d="M1229.77,531.32l.93,6.41L1198.2,556l-.93-6.46,8.64-4.55-2-13.74-9.58-1.91-.9-6.22Zm-21,.87,1.52,10.51,14.05-7.3v-.14Z"/><path class="cls-2" d="M1232.16,547.75l2.74,28-5.23.51-1.08-11-29.37,2.88-.59-6.06,29.37-2.87-1.07-11Z"/><path class="cls-2" d="M1235.4,581.37l.29,8.57-26.88,10.52v.1l27.53,8.42.29,8.47-34.75,1.19-.2-5.79,26.82-.92v-.1l-27.15-8.72-.17-5,26.49-10.58v-.1l-26.82.92-.2-5.79Z"/><path class="cls-2" d="M1236.79,641.44a16.15,16.15,0,0,1-1.72,6.93,15.64,15.64,0,0,1-4.13,5.09,17.58,17.58,0,0,1-5.91,3.07A22.23,22.23,0,0,1,1211,656a17.56,17.56,0,0,1-5.67-3.5,15.38,15.38,0,0,1-3.73-5.37,17.71,17.71,0,0,1,.51-14,15.34,15.34,0,0,1,4.11-5.09,17.52,17.52,0,0,1,5.91-3.07,22.2,22.2,0,0,1,14.07.51,17.52,17.52,0,0,1,5.67,3.5,15.65,15.65,0,0,1,3.75,5.38A16.17,16.17,0,0,1,1236.79,641.44Zm-5-.18a9.74,9.74,0,0,0-.95-4.84A9.41,9.41,0,0,0,1228,633a13.49,13.49,0,0,0-4.19-2,19.77,19.77,0,0,0-9.73-.35,13.48,13.48,0,0,0-4.33,1.72,9.42,9.42,0,0,0-3.11,3.18,10.83,10.83,0,0,0-.35,9.59,9.4,9.4,0,0,0,2.87,3.39,13.51,13.51,0,0,0,4.19,2,19.79,19.79,0,0,0,9.73.36,13.53,13.53,0,0,0,4.33-1.72,9.42,9.42,0,0,0,3.11-3.18,9.76,9.76,0,0,0,1.34-4.76Z"/><path class="cls-2" d="M1211.29,666.91a7.8,7.8,0,0,0-3.46.35,6.15,6.15,0,0,0-2.49,1.67,8.09,8.09,0,0,0-1.58,2.66A13.55,13.55,0,0,0,1203,675a11.06,11.06,0,0,0,.13,3.44,7,7,0,0,0,1,2.39,4.32,4.32,0,0,0,1.55,1.42,5,5,0,0,0,1.88.57,4.16,4.16,0,0,0,3-.61,5.18,5.18,0,0,0,1.52-1.83,41.54,41.54,0,0,0,1.7-4.17q.84-2.39,2.16-5.88a12.93,12.93,0,0,1,1.89-3.56,8.87,8.87,0,0,1,2.34-2.15,7.45,7.45,0,0,1,2.59-1,9.94,9.94,0,0,1,2.7-.11,9,9,0,0,1,4.43,1.53,9.73,9.73,0,0,1,2.9,3.19,12.73,12.73,0,0,1,1.47,4.25,17.91,17.91,0,0,1,.16,4.66,18.24,18.24,0,0,1-1.2,5,12.67,12.67,0,0,1-2.52,4,10,10,0,0,1-8.62,3.15l.59-6.06q3.37.08,4.95-1.82a9.11,9.11,0,0,0,1.88-5,11.3,11.3,0,0,0,0-2.2A6.92,6.92,0,0,0,1229,672a4.49,4.49,0,0,0-1.23-1.66,4.25,4.25,0,0,0-5.12,0,7.42,7.42,0,0,0-1.86,2.83l-.56,1.49-1.09,2.9-1.16,3.14q-.57,1.54-.83,2.2a10.16,10.16,0,0,1-1.74,2.81,9.37,9.37,0,0,1-2.31,1.9,8.72,8.72,0,0,1-2.67,1,9.35,9.35,0,0,1-2.75.15,9.84,9.84,0,0,1-4.85-1.67,10.12,10.12,0,0,1-3.07-3.45,13.64,13.64,0,0,1-1.49-4.6,21.32,21.32,0,0,1-.12-5.1,20.85,20.85,0,0,1,1.27-5.5,13.12,13.12,0,0,1,2.67-4.34,11,11,0,0,1,4.15-2.73,12.89,12.89,0,0,1,5.67-.67Z"/><path class="cls-2" d="M1231.32,698l-2.38,15.17a14.58,14.58,0,0,1-2,5.81,9.52,9.52,0,0,1-3.2,3.15,9.08,9.08,0,0,1-3.73,1.17,14.88,14.88,0,0,1-3.54-.08,14.64,14.64,0,0,1-3.37-1,9.1,9.1,0,0,1-3.18-2.24,9.32,9.32,0,0,1-2.08-4,14.85,14.85,0,0,1-.12-6.13l1.41-9.15-13.19-2,.93-6Zm-17.2,3.51-1.36,8.81a7.86,7.86,0,0,0,0,2.11,6,6,0,0,0,.64,2.09,4.86,4.86,0,0,0,1.51,1.71,6,6,0,0,0,2.63,1,7.11,7.11,0,0,0,2.87,0,4.5,4.5,0,0,0,2-1,4.68,4.68,0,0,0,1.18-1.74,10.33,10.33,0,0,0,.59-2.23l1.37-8.9Z"/><path class="cls-2" d="M1225.94,731.53l-1.28,6-13.52-2.9-3.32,15.47,13.52,2.91-1.28,6-34-7.3,1.28-6,15.33,3.29,3.32-15.47-15.33-3.29,1.28-6Z"/><path class="cls-2" d="M1217.94,767.41l-6.67,24.12-5.07-1.39,5-18.27-8.78-2.42-4.65,16.9L1193,785l4.65-16.9-9.81-2.7L1182.7,784l-5.07-1.4,6.73-24.46Z"/><path class="cls-2" d="M1209.19,798.37l-5.25,15.74q-1.83,5.45-5.1,7.38a8.66,8.66,0,0,1-7.47.52,10.09,10.09,0,0,1-3.67-2,9,9,0,0,1-2-2.45,6.68,6.68,0,0,1-.75-2.28,14,14,0,0,1-.11-1.5h-.09a6.22,6.22,0,0,1-1,1.44,5,5,0,0,1-1.71,1.2,6.78,6.78,0,0,1-2.51.52,9.8,9.8,0,0,1-3.4-.6,30.74,30.74,0,0,0-5.43-1.34,7.33,7.33,0,0,0-3.85.22l2.08-6.19a5.64,5.64,0,0,1,2.61,0q1.33.32,2.53.72a24.93,24.93,0,0,0,4,1,7.18,7.18,0,0,0,3.07-.1,4.53,4.53,0,0,0,2.27-1.47,9.34,9.34,0,0,0,1.6-3.08l2.85-8.5L1174.29,793l1.94-5.77Zm-16.94.73-3.18,9.46a6.33,6.33,0,0,0-.1,4.64,5.39,5.39,0,0,0,3.47,2.76,6.44,6.44,0,0,0,2.72.4,3.94,3.94,0,0,0,2-.75,4.94,4.94,0,0,0,1.36-1.6,12.93,12.93,0,0,0,.91-2.09l3.15-9.37Z"/><path class="cls-2" d="M1197.51,832.17l-9.27,23.25-4.89-2,7-17.6-8.41-3.34-6.5,16.28-4.61-1.84,6.49-16.29-9.45-3.77-7.14,17.91-4.89-2,9.4-23.57Z"/><path class="cls-2" d="M679.55,7.53l6,.69L684,22l15.73,1.79L701.33,10l6,.69-3.89,34.55-6-.69L699.21,29l-15.77-1.79-1.78,15.58-6-.69Z"/><path class="cls-2" d="M721.45,34.39,712.2,11.33l7,1.21,6.4,16.93,11.56-13.81,6.72,1.17-16.43,18.6-2.33,13.44-6-1Z"/><path class="cls-2" d="M748.7,17.88l14,3.29a16.21,16.21,0,0,1,6.42,2.91,12.85,12.85,0,0,1,3.8,4.72,15.91,15.91,0,0,1,1.42,6A25.91,25.91,0,0,1,771.25,48a15.92,15.92,0,0,1-3.94,4.75,12.85,12.85,0,0,1-5.5,2.54,16.22,16.22,0,0,1-7-.25l-14-3.29Zm-.88,30.41,5.83,1.37a15.18,15.18,0,0,0,5.88.4,8.53,8.53,0,0,0,4.06-1.75,9.52,9.52,0,0,0,2.61-3.44,26.16,26.16,0,0,0,2.24-9.53,9.51,9.51,0,0,0-.81-4.24,8.51,8.51,0,0,0-2.86-3.37,15.17,15.17,0,0,0-5.45-2.25l-5.83-1.37Z"/><path class="cls-2" d="M784.44,26.53l15.91,4.77q5.5,1.65,7.54,4.86a8.65,8.65,0,0,1,.76,7.45,10.08,10.08,0,0,1-1.88,3.73,9,9,0,0,1-2.39,2,6.65,6.65,0,0,1-2.26.82,12.83,12.83,0,0,1-1.5.16v.09a6.23,6.23,0,0,1,1.47,1,5,5,0,0,1,1.25,1.67,6.81,6.81,0,0,1,.6,2.49,9.8,9.8,0,0,1-.49,3.41,30.7,30.7,0,0,0-1.16,5.47,7.32,7.32,0,0,0,.35,3.84l-6.25-1.87a5.67,5.67,0,0,1-.06-2.61q.28-1.34.64-2.55a25,25,0,0,0,.9-4,7.18,7.18,0,0,0-.2-3.06A4.54,4.54,0,0,0,796.13,52a9.37,9.37,0,0,0-3.13-1.5l-8.58-2.58L780.3,61.61l-5.83-1.75Zm1.28,16.91,9.56,2.87a6.33,6.33,0,0,0,4.64-.06,5.38,5.38,0,0,0,2.64-3.55,6.45,6.45,0,0,0,.31-2.73,3.93,3.93,0,0,0-.81-2,4.91,4.91,0,0,0-1.64-1.31,12.88,12.88,0,0,0-2.11-.84L788.84,33Z"/><path class="cls-2" d="M833,41.53a16.16,16.16,0,0,1,6,3.79,15.66,15.66,0,0,1,3.54,5.52,17.55,17.55,0,0,1,1.07,6.58,22.22,22.22,0,0,1-4.83,13.11,17.55,17.55,0,0,1-5.09,4.29,15.37,15.37,0,0,1-6.27,1.86,17.72,17.72,0,0,1-13.11-4.85,15.34,15.34,0,0,1-3.55-5.49,17.51,17.51,0,0,1-1.07-6.58,22.21,22.21,0,0,1,4.88-13.2,17.51,17.51,0,0,1,5.09-4.3,15.65,15.65,0,0,1,6.29-1.83A16.16,16.16,0,0,1,833,41.53Zm-1.72,4.66a9.75,9.75,0,0,0-4.89-.61,9.42,9.42,0,0,0-4.12,1.67A13.49,13.49,0,0,0,819,50.53a19.79,19.79,0,0,0-3.38,9.14,13.46,13.46,0,0,0,.3,4.66,9.39,9.39,0,0,0,2,4,10.84,10.84,0,0,0,9,3.33,9.42,9.42,0,0,0,4.12-1.67,13.51,13.51,0,0,0,3.24-3.35,19.78,19.78,0,0,0,3.38-9.14,13.56,13.56,0,0,0-.28-4.65,9.43,9.43,0,0,0-2-4,9.74,9.74,0,0,0-4.13-2.7Z"/><path class="cls-2" d="M849.22,73.67a7.76,7.76,0,0,0-.75,3.39,6.16,6.16,0,0,0,.81,2.88,8.08,8.08,0,0,0,2,2.33,13.48,13.48,0,0,0,3,1.76,11.05,11.05,0,0,0,3.31.95,6.92,6.92,0,0,0,2.57-.17,4.32,4.32,0,0,0,1.84-1,5,5,0,0,0,1.13-1.6,4.16,4.16,0,0,0,.36-3.06,5.15,5.15,0,0,0-1.27-2,41.37,41.37,0,0,0-3.42-2.92q-2-1.55-4.91-3.89a13,13,0,0,1-2.79-2.9,8.86,8.86,0,0,1-1.31-2.91,7.44,7.44,0,0,1-.14-2.77,9.92,9.92,0,0,1,.74-2.6,9,9,0,0,1,2.83-3.73,9.76,9.76,0,0,1,3.94-1.75,12.75,12.75,0,0,1,4.5-.07,18,18,0,0,1,4.48,1.31,18.19,18.19,0,0,1,4.42,2.71,12.66,12.66,0,0,1,3,3.65,10,10,0,0,1,.3,9.18L868.29,68q1.13-3.17-.18-5.27a9.09,9.09,0,0,0-4.17-3.4,11.39,11.39,0,0,0-2.09-.68,7,7,0,0,0-2.17-.16,4.49,4.49,0,0,0-2,.65A4.24,4.24,0,0,0,856.12,64a7.4,7.4,0,0,0,2.1,2.65l1.24,1,2.48,1.95,2.62,2.08,1.83,1.47a10.18,10.18,0,0,1,2.13,2.53,9.38,9.38,0,0,1,1,2.83,8.79,8.79,0,0,1,.13,2.85A9.4,9.4,0,0,1,869,84a9.85,9.85,0,0,1-3.1,4.09A10.13,10.13,0,0,1,861.64,90a13.64,13.64,0,0,1-4.83,0,21.26,21.26,0,0,1-4.87-1.53,20.83,20.83,0,0,1-4.84-2.9,13.1,13.1,0,0,1-3.29-3.89,11,11,0,0,1-1.29-4.8,12.86,12.86,0,0,1,1.13-5.59Z"/><path class="cls-2" d="M885,64.34l13.68,7a14.58,14.58,0,0,1,4.9,3.69,9.53,9.53,0,0,1,2,4,9.1,9.1,0,0,1,0,3.91,14.81,14.81,0,0,1-1.18,3.34,14.54,14.54,0,0,1-2,2.89,9.13,9.13,0,0,1-3.12,2.32,9.33,9.33,0,0,1-4.42.73,14.87,14.87,0,0,1-5.86-1.8l-8.25-4.19-6,11.9-5.43-2.76Zm-2,17.43,8,4a8,8,0,0,0,2,.69,6,6,0,0,0,2.19,0,4.85,4.85,0,0,0,2.1-.9,6,6,0,0,0,1.75-2.2,7.13,7.13,0,0,0,.84-2.74,4.52,4.52,0,0,0-.4-2.09,4.71,4.71,0,0,0-1.29-1.66,10.27,10.27,0,0,0-1.93-1.25l-8-4.08Z"/><path class="cls-2" d="M915.13,79.89,920.39,83l-7,11.94,13.67,8,7-11.94L939.32,94l-17.54,30L916.53,121l7.91-13.54-13.67-8L902.86,113l-5.26-3.07Z"/><path class="cls-2" d="M946.76,98.74l20.86,13.79-2.91,4.38-15.77-10.38-5,7.59,14.61,9.69-2.75,4.14-14.61-9.69-5.63,8.48,16.07,10.66-2.91,4.38-21.15-14Z"/><path class="cls-2" d="M973.44,116.67l13.31,9.93q4.61,3.44,5.42,7.15a8.65,8.65,0,0,1-1.83,7.26,10.09,10.09,0,0,1-3,2.86A9,9,0,0,1,984.4,145a6.67,6.67,0,0,1-2.4,0q-1-.22-1.46-.36l-.06.08a6.26,6.26,0,0,1,1.06,1.4,5,5,0,0,1,.6,2,6.81,6.81,0,0,1-.29,2.55,9.84,9.84,0,0,1-1.63,3,30.74,30.74,0,0,0-3,4.75,7.34,7.34,0,0,0-1,3.73l-5.23-3.9a5.65,5.65,0,0,1,.84-2.47q.72-1.16,1.47-2.18a25.08,25.08,0,0,0,2.23-3.47,7.18,7.18,0,0,0,.86-2.94,4.55,4.55,0,0,0-.69-2.61,9.35,9.35,0,0,0-2.43-2.48l-7.18-5.36-8.56,11.48-4.88-3.65ZM968.85,133l8,6a6.33,6.33,0,0,0,4.39,1.53,5.38,5.38,0,0,0,3.7-2.43,6.46,6.46,0,0,0,1.22-2.46,4,4,0,0,0-.1-2.11,4.91,4.91,0,0,0-1.1-1.79,13,13,0,0,0-1.7-1.51l-7.92-5.91Z"/><path class="cls-2" d="M1001.89,138.26l19.21,16-3.37,4-14.54-12.14-5.84,7,13.46,11.24-3.18,3.81-13.46-11.24-6.52,7.81,14.8,12.36-3.37,4L979.6,164.84Z"/><path class="cls-2" d="M94.54,300.94l9-14.28a12.09,12.09,0,0,1,5.82-5.19q3.32-1.24,7,1.08a7.75,7.75,0,0,1,3.12,3.5,8.29,8.29,0,0,1,.48,4.66l.08,0a7.6,7.6,0,0,1,5.18-2.49,11,11,0,0,1,8.72,4.43,7.79,7.79,0,0,1,1.37,3.58,11.54,11.54,0,0,1-.41,4.47,19.65,19.65,0,0,1-2.46,5.3l-8.5,13.48Zm15.56,2.59,5.31-8.39a5.44,5.44,0,0,0,.9-3.75,4.44,4.44,0,0,0-2.24-3.15,4.53,4.53,0,0,0-3.83-.87A5.89,5.89,0,0,0,107.3,290l-5.31,8.4Zm12.84,8.2,5.76-9.09a6.07,6.07,0,0,0,1.09-4.41,5.3,5.3,0,0,0-2.62-3.47,5.08,5.08,0,0,0-4.17-.83,6.2,6.2,0,0,0-3.48,2.9l-5.75,9.09Z"/><path class="cls-2" d="M113.79,271.26l3.47-5,28.57,19.82-3.47,5Z"/><path class="cls-2" d="M130.44,246.83a16.15,16.15,0,0,1,5.4-4.67,15.66,15.66,0,0,1,6.31-1.78,17.53,17.53,0,0,1,6.6.9,22.2,22.2,0,0,1,11.2,8.53,17.52,17.52,0,0,1,2.62,6.13,15.38,15.38,0,0,1-.05,6.54A17.71,17.71,0,0,1,154,273.6a15.36,15.36,0,0,1-6.29,1.79,17.53,17.53,0,0,1-6.6-.9A22.22,22.22,0,0,1,130,266a17.54,17.54,0,0,1-2.62-6.13,15.65,15.65,0,0,1,0-6.56A16.16,16.16,0,0,1,130.44,246.83Zm4,3a9.75,9.75,0,0,0-2,4.5,9.43,9.43,0,0,0,.39,4.43,13.52,13.52,0,0,0,2.25,4.07,19.79,19.79,0,0,0,7.75,5.9,13.49,13.49,0,0,0,4.53,1.09,9.4,9.4,0,0,0,4.37-.8,10.84,10.84,0,0,0,5.81-7.63,9.42,9.42,0,0,0-.39-4.43,13.55,13.55,0,0,0-2.25-4.07,19.8,19.8,0,0,0-7.75-5.9,13.55,13.55,0,0,0-4.53-1.09,9.42,9.42,0,0,0-4.37.8,9.74,9.74,0,0,0-3.85,3.14Z"/><path class="cls-2" d="M165.94,240.72a7.76,7.76,0,0,0,3,1.71,6.14,6.14,0,0,0,3,.07,8.06,8.06,0,0,0,2.82-1.26,13.56,13.56,0,0,0,2.55-2.33,11,11,0,0,0,1.87-2.89,6.9,6.9,0,0,0,.59-2.51,4.3,4.3,0,0,0-.45-2.06,5,5,0,0,0-1.2-1.55,4.16,4.16,0,0,0-2.82-1.24,5.16,5.16,0,0,0-2.3.62,41.63,41.63,0,0,0-3.79,2.42q-2.07,1.47-5.16,3.56a13,13,0,0,1-3.59,1.82,8.87,8.87,0,0,1-3.15.41,7.42,7.42,0,0,1-2.69-.68,10,10,0,0,1-2.27-1.47,9.06,9.06,0,0,1-2.74-3.8,9.77,9.77,0,0,1-.53-4.28,12.72,12.72,0,0,1,1.25-4.32,18,18,0,0,1,2.56-3.9,18.25,18.25,0,0,1,3.89-3.43,12.69,12.69,0,0,1,4.37-1.83,10.4,10.4,0,0,1,4.53.08,10.29,10.29,0,0,1,4.33,2.32l-4,4.61q-2.71-2-5.09-1.36a9.08,9.08,0,0,0-4.45,3,11.35,11.35,0,0,0-1.26,1.8,7,7,0,0,0-.78,2,4.5,4.5,0,0,0,.05,2.07,4.24,4.24,0,0,0,4.21,2.92,7.39,7.39,0,0,0,3.15-1.24l1.31-.89,2.56-1.75,2.76-1.9,1.94-1.32a10.18,10.18,0,0,1,3-1.3,9.38,9.38,0,0,1,3-.22,8.75,8.75,0,0,1,2.76.71,9.35,9.35,0,0,1,2.34,1.47,9.84,9.84,0,0,1,3,4.16,10.14,10.14,0,0,1,.51,4.59,13.67,13.67,0,0,1-1.43,4.61,21.29,21.29,0,0,1-2.84,4.24,20.89,20.89,0,0,1-4.21,3.77,13.11,13.11,0,0,1-4.68,2,11,11,0,0,1-5-.17,12.87,12.87,0,0,1-5-2.72Z"/><path class="cls-2" d="M167.54,203.74l10.65-11a14.58,14.58,0,0,1,5-3.6,9.53,9.53,0,0,1,4.43-.73,9.09,9.09,0,0,1,3.72,1.19,15,15,0,0,1,2.85,2.1,14.7,14.7,0,0,1,2.18,2.75,9.13,9.13,0,0,1,1.31,3.66,9.33,9.33,0,0,1-.59,4.44,14.88,14.88,0,0,1-3.44,5.07l-6.42,6.66,9.6,9.26-4.22,4.38Zm16.08,7,6.19-6.42a8,8,0,0,0,1.24-1.71,6,6,0,0,0,.69-2.08,4.86,4.86,0,0,0-.25-2.27,6,6,0,0,0-1.59-2.31,7.11,7.11,0,0,0-2.37-1.61,4.52,4.52,0,0,0-2.19-.29,4.68,4.68,0,0,0-2,.74,10.39,10.39,0,0,0-1.76,1.48l-6.25,6.49Z"/><path class="cls-2" d="M191.22,179.53l4.48-4.12,9.37,10.12,11.64-10.72-9.37-10.17,4.48-4.12,23.56,25.57-4.44,4.13-10.62-11.53-11.68,10.72,10.63,11.53-4.48,4.13Z"/><path class="cls-2" d="M218.52,154.78l19.35-15.88,3.34,4.07-14.65,12,5.78,7,13.6-11.07,3.15,3.84-13.55,11.12,6.4,7.87,14.92-12.2,3.34,4.07-19.61,16.1Z"/><path class="cls-2" d="M243.5,134.53l13.41-9.8q4.64-3.39,8.43-3.08a8.65,8.65,0,0,1,6.4,3.89,10.11,10.11,0,0,1,1.84,3.75,9,9,0,0,1,.18,3.13,6.65,6.65,0,0,1-.71,2.29q-.51.91-.78,1.29l.06.08a6.25,6.25,0,0,1,1.61-.55,5,5,0,0,1,2.09,0,6.76,6.76,0,0,1,2.35,1A9.78,9.78,0,0,1,280.8,139a30.88,30.88,0,0,0,3.67,4.23,7.32,7.32,0,0,0,3.27,2l-5.27,3.85a5.67,5.67,0,0,1-2.11-1.53,23.38,23.38,0,0,1-1.65-2.05,25,25,0,0,0-2.66-3.15,7.19,7.19,0,0,0-2.56-1.69,4.54,4.54,0,0,0-2.7-.11,9.37,9.37,0,0,0-3.09,1.59l-7.23,5.29L268.94,159,264,162.61Zm14.25,9.19,8.06-5.89a6.34,6.34,0,0,0,2.76-3.74,5.39,5.39,0,0,0-1.24-4.25,6.45,6.45,0,0,0-2-1.89,3.94,3.94,0,0,0-2-.53,4.92,4.92,0,0,0-2,.52,13,13,0,0,0-1.94,1.18l-8,5.83Z"/><path class="cls-2" d="M272.55,113.68l21-13.62,2.86,4.41-15.89,10.31,5,7.64,14.71-9.54,2.7,4.17-14.71,9.54,5.54,8.54,16.18-10.5L312.8,129l-21.29,13.81Z"/><path class="cls-2" d="M168.62,984.6l2.53,3-2.5,3.37a14.47,14.47,0,0,1,6.09,1.19,13.81,13.81,0,0,1,4.46,3.56,16.4,16.4,0,0,1,3.46,6.24,15.37,15.37,0,0,1,.43,6.53,17.5,17.5,0,0,1-2.26,6.27,22.2,22.2,0,0,1-10.69,9.16,17.52,17.52,0,0,1-6.54,1.27,15.63,15.63,0,0,1-6.4-1.41,16.15,16.15,0,0,1-5.66-4.36,19,19,0,0,1-2.93-4.58,14.39,14.39,0,0,1-1.26-4.92A12.42,12.42,0,0,1,148,1005a13.06,13.06,0,0,1,2.84-4.62l3.87,4.51a7.46,7.46,0,0,0-1.92,5.69,8.85,8.85,0,0,0,.78,2.93,11.36,11.36,0,0,0,1.73,2.69,9.76,9.76,0,0,0,4,2.91,9.4,9.4,0,0,0,4.41.55,13.5,13.5,0,0,0,4.46-1.35,19.79,19.79,0,0,0,7.4-6.34,13.47,13.47,0,0,0,2-4.2,9.41,9.41,0,0,0,.14-4.45,9.75,9.75,0,0,0-2.27-4.37,11.35,11.35,0,0,0-3.16-2.75,8.25,8.25,0,0,0-3.42-1.08,8,8,0,0,0-3.53.56,12.84,12.84,0,0,0-3.48,2.08l6,7-3.51,3-9.64-11.21Z"/><path class="cls-2" d="M137.17,1000.79,122,980.85l4.19-3.18,11.45,15.09,7.25-5.5-10.6-14,4-3,10.6,14,8.11-6.15-11.66-15.36,4.16-3.22,15.34,20.21Z"/><path class="cls-2" d="M108.88,963.12a16.17,16.17,0,0,1-2.67-6.59,15.64,15.64,0,0,1,.37-6.54,17.53,17.53,0,0,1,3-6,22.22,22.22,0,0,1,11.7-7.83,17.56,17.56,0,0,1,6.65-.49,15.37,15.37,0,0,1,6.17,2.17,17.71,17.71,0,0,1,7.76,11.69,15.37,15.37,0,0,1-.35,6.53,17.5,17.5,0,0,1-3,6,22.2,22.2,0,0,1-11.7,7.83,17.51,17.51,0,0,1-6.64.49,15.64,15.64,0,0,1-6.23-2.26A16.17,16.17,0,0,1,108.88,963.12Zm4.13-2.76a9.74,9.74,0,0,0,3.6,3.36,9.42,9.42,0,0,0,4.33,1.07,13.54,13.54,0,0,0,4.58-.81,19.81,19.81,0,0,0,8.1-5.42,13.48,13.48,0,0,0,2.5-3.93,9.39,9.39,0,0,0,.66-4.4,10.83,10.83,0,0,0-5.33-8,9.4,9.4,0,0,0-4.32-1.07,13.55,13.55,0,0,0-4.58.81,19.8,19.8,0,0,0-8.1,5.42,13.53,13.53,0,0,0-2.5,3.93,9.42,9.42,0,0,0-.66,4.4A9.74,9.74,0,0,0,113,960.36Z"/><path class="cls-2" d="M114.63,927.53a7.79,7.79,0,0,0,2.6-2.31,6.15,6.15,0,0,0,1-2.81,8.06,8.06,0,0,0-.28-3.08,13.51,13.51,0,0,0-1.38-3.17,11,11,0,0,0-2.12-2.71,6.86,6.86,0,0,0-2.19-1.37,4.31,4.31,0,0,0-2.09-.25,5,5,0,0,0-1.86.63,4.16,4.16,0,0,0-2.09,2.26,5.17,5.17,0,0,0-.16,2.38,41.62,41.62,0,0,0,1.12,4.43q.72,2.43,1.69,6a13,13,0,0,1,.56,4,8.88,8.88,0,0,1-.64,3.11,7.42,7.42,0,0,1-1.52,2.33,10,10,0,0,1-2.13,1.67,9.05,9.05,0,0,1-4.48,1.35,9.77,9.77,0,0,1-4.22-.89,12.76,12.76,0,0,1-3.68-2.57,17.92,17.92,0,0,1-2.82-3.72,18.2,18.2,0,0,1-2-4.79,12.68,12.68,0,0,1-.31-4.73A10.41,10.41,0,0,1,89.17,919a10.29,10.29,0,0,1,3.6-3.35l3.07,5.25q-2.78,1.91-2.94,4.37a9.09,9.09,0,0,0,1.43,5.2,11.49,11.49,0,0,0,1.3,1.78,6.93,6.93,0,0,0,1.66,1.4,4.5,4.5,0,0,0,2,.62,4.24,4.24,0,0,0,4.12-3,7.4,7.4,0,0,0-.15-3.38q-.06-.19-.42-1.53t-.82-3l-.9-3.23q-.44-1.57-.62-2.26a10.17,10.17,0,0,1-.24-3.3,9.38,9.38,0,0,1,.76-2.9,8.76,8.76,0,0,1,1.57-2.38,9.36,9.36,0,0,1,2.11-1.79,9.83,9.83,0,0,1,4.91-1.49,10.14,10.14,0,0,1,4.51,1,13.67,13.67,0,0,1,3.9,2.85,21.25,21.25,0,0,1,3.08,4.06,20.89,20.89,0,0,1,2.2,5.2,13.1,13.1,0,0,1,.38,5.08,11,11,0,0,1-1.74,4.7,12.88,12.88,0,0,1-4.2,3.87Z"/><path class="cls-2" d="M80.16,914l-7-13.66a14.58,14.58,0,0,1-1.8-5.86,9.55,9.55,0,0,1,.74-4.43A9.08,9.08,0,0,1,74.43,887a14.9,14.9,0,0,1,2.91-2,14.71,14.71,0,0,1,3.31-1.18,9.15,9.15,0,0,1,3.89,0,9.32,9.32,0,0,1,4,2,14.87,14.87,0,0,1,3.68,4.9l4.22,8.24,11.88-6.08,2.77,5.42ZM92,901.13l-4.1-7.94a7.91,7.91,0,0,0-1.21-1.73A6,6,0,0,0,85,890.14a4.88,4.88,0,0,0-2.23-.5,6,6,0,0,0-2.71.75,7.14,7.14,0,0,0-2.29,1.72,4.52,4.52,0,0,0-1,2,4.69,4.69,0,0,0,.06,2.1,10.32,10.32,0,0,0,.83,2.15l4.1,8Z"/><path class="cls-2" d="M64.94,883.79l-2.45-5.57,12.66-5.57-6.37-14.49-12.66,5.56-2.45-5.57,31.83-14,2.44,5.58L73.58,856l6.36,14.49,14.36-6.31,2.45,5.57Z"/><path class="cls-2" d="M50.39,849.95l-8.74-23.42,4.93-1.84,6.62,17.75,8.53-3.18-6.12-16.43,4.65-1.74,6.12,16.44,9.56-3.6L69.2,815.86,74.13,814l8.81,23.78Z"/><path class="cls-2" d="M39.34,819.75l-4.92-15.86q-1.7-5.49-.18-9A8.66,8.66,0,0,1,40,790.1a10.08,10.08,0,0,1,4.15-.52,9,9,0,0,1,3,.85,6.67,6.67,0,0,1,1.94,1.41q.7.78,1,1.15h.09a6.25,6.25,0,0,1,0-1.75,5,5,0,0,1,.69-2,6.77,6.77,0,0,1,1.73-1.89,9.81,9.81,0,0,1,3.1-1.5,30.88,30.88,0,0,0,5.19-2.09,7.32,7.32,0,0,0,3-2.43l1.89,6.2a5.66,5.66,0,0,1-2.13,1.5q-1.27.52-2.47.9a25.11,25.11,0,0,0-3.84,1.5,7.2,7.2,0,0,0-2.43,1.88,4.55,4.55,0,0,0-1,2.52,9.36,9.36,0,0,0,.51,3.44l2.66,8.56,13.67-4.24,1.8,5.81Zm13.31-10.51-3-9.53A6.34,6.34,0,0,0,47,795.89a5.39,5.39,0,0,0-4.42-.21,6.45,6.45,0,0,0-2.44,1.27A3.93,3.93,0,0,0,39,798.71a4.92,4.92,0,0,0-.17,2.09,13,13,0,0,0,.49,2.22l2.93,9.44Z"/><path class="cls-2" d="M29,785.53l-6.08-24.32,5.1-1.28,4.6,18.38,8.83-2.21-4.26-17L42,757.89l4.26,17,9.87-2.47-4.69-18.71,5.1-1.28L62.74,777Z"/></g></g></g></g></g></svg>